<?xml version="1.0" encoding="utf-8"?>
<!-- Generator: Adobe Illustrator 16.0.0, SVG Export Plug-In . SVG Version: 6.00 Build 0)  -->
<!DOCTYPE svg PUBLIC "-//W3C//DTD SVG 1.1//EN" "http://www.w3.org/Graphics/SVG/1.1/DTD/svg11.dtd">
<svg version="1.1" id="Layer_1" xmlns="http://www.w3.org/2000/svg" xmlns:xlink="http://www.w3.org/1999/xlink" x="0px" y="0px"
	 width="125px" height="42.618px" viewBox="0 0 125 42.618" style="enable-background:new 0 0 125 42.618;" xml:space="preserve">
<style type="text/css">
<![CDATA[
	.st0{opacity:0.3;fill:#015D5C;}
	.st1{fill:#015D5C;}
]]>
</style>
<g>
	<g>
		<path class="st0" d="M74.904,25.432c0,0-0.164,0.305-0.257,0.375c-0.095,0.07-0.142,0.023-0.211,0.211
			c-0.071,0.188-0.047,0.234-0.071,0.352c-0.023,0.117,0.071,0.188,0.071,0.258s0,0.306,0,0.306l0.069,0.116
			c0,0,0.094,0.047,0.165,0.023c0.069-0.023,0.304-0.047,0.304-0.047s0.023,0.047,0.095-0.069c0.069-0.118,0.14-0.211,0.14-0.211
			s0.117-0.048,0.141-0.165s0.07-0.281,0.07-0.281s0.141,0.047,0.118-0.188c-0.023-0.234-0.023-0.234-0.07-0.328
			c-0.048-0.094,0-0.188-0.164-0.211c-0.165-0.023-0.234-0.047-0.234-0.047L74.904,25.432z"/>
		<path class="st0" d="M76.147,24.612c0,0,0,0.047-0.071,0.305c-0.069,0.258-0.139,0.422-0.139,0.516s0.115,0.258,0.115,0.258
			s-0.023-0.022,0.141-0.022c0.165,0,0.165,0.28,0.376,0c0.21-0.282,0.28-0.329,0.28-0.329s0.07-0.445,0.07-0.538
			c0-0.095,0.096-0.142,0-0.259c-0.093-0.117-0.093-0.164-0.188-0.164c-0.094,0-0.14-0.07-0.234,0.023
			C76.405,24.495,76.147,24.612,76.147,24.612z"/>
		<path class="st0" d="M77.576,23.018l-0.188,0.539l0.141,0.305c0,0,0.023,0.07,0.095,0.07c0.07,0,0.281,0.07,0.281,0.07
			s0.069,0.047,0.14,0.023c0.071-0.023,0.188,0.07,0.259-0.094c0.069-0.164,0.116-0.141,0.116-0.234s0.023,0.117,0.023-0.164
			s0-0.305,0-0.398s0.023-0.117-0.023-0.188s0-0.117-0.093-0.141c-0.095-0.023-0.048-0.094-0.329,0S77.576,23.018,77.576,23.018z"/>
		<path class="st0" d="M79.218,21.776c0,0.07-0.046,0.258-0.071,0.328c-0.023,0.07-0.117,0.211-0.163,0.352
			c-0.048,0.141-0.211,0.234-0.023,0.352c0.187,0.117,0.351,0.141,0.469,0.164c0.116,0.023,0.211,0.141,0.304-0.047
			c0.095-0.188,0.118-0.258,0.142-0.352c0.022-0.094,0.069-0.07,0.069-0.234s0-0.164-0.023-0.258s0-0.141-0.069-0.234
			c-0.071-0.094-0.118-0.164-0.211-0.188c-0.095-0.023-0.095-0.023-0.095-0.023L79.218,21.776z"/>
		<path class="st0" d="M80.811,20.135c0,0,0.071,0.023-0.047,0.211c-0.117,0.188-0.093,0.164-0.141,0.305
			c-0.047,0.141-0.094,0.281-0.116,0.352c-0.023,0.071-0.071,0.188,0.022,0.281s0.259,0.188,0.259,0.188s0.046,0.07,0.21-0.047
			c0.165-0.117,0.095-0.023,0.234-0.141c0.142-0.117,0.071,0.023,0.211-0.188c0.142-0.211,0.211-0.258,0.165-0.398
			c-0.047-0.141-0.023-0.047-0.047-0.258s-0.023-0.328-0.023-0.328s0.116-0.117-0.071-0.141S80.811,20.135,80.811,20.135z"/>
		<path class="st0" d="M82.311,18.26c0,0,0,0.117-0.069,0.258c-0.07,0.141-0.142,0.305-0.142,0.398s0.095,0.258,0.095,0.258
			s-0.118,0.164,0.187,0.07c0.306-0.094,0.211,0.047,0.306-0.094c0.093-0.141,0.116-0.141,0.188-0.211
			c0.069-0.07,0.092-0.141,0.115-0.305s0.095-0.188,0.023-0.281c-0.069-0.094-0.069-0.094-0.069-0.094s0.164-0.023-0.094-0.047
			c-0.259-0.023-0.306-0.023-0.398-0.023C82.357,18.19,82.311,18.26,82.311,18.26z"/>
		<path class="st0" d="M83.67,16.784c-0.14,0.164-0.116,0.141-0.163,0.375s-0.047,0.398-0.047,0.398s-0.095,0.164,0.116,0.117
			s0.234-0.07,0.305-0.117c0.072-0.047,0.142,0.023,0.164-0.094c0.023-0.117,0.047-0.188,0.047-0.281s0.164-0.07,0.024-0.234
			c-0.141-0.164-0.259-0.164-0.259-0.164H83.67z"/>
		<path class="st0" d="M85.381,14.815c-0.093,0.07-0.163,0.258-0.327,0.469c-0.165,0.211-0.281,0.281-0.399,0.445
			c-0.116,0.164-0.141,0.234-0.116,0.352c0.023,0.117,0.07,0.305,0.07,0.305s0.046,0.211,0.164,0.234
			c0.116,0.023,0.327,0.07,0.327,0.07s0.211,0.117,0.329-0.023c0.116-0.141,0.163-0.117,0.234-0.258
			c0.069-0.141,0.281-0.328,0.281-0.328s-0.07-0.164,0.233,0.047c0.306,0.211,0.4,0.281,0.4,0.281
			c0.045-0.117,0.069-0.422,0.069-0.422l0.094-0.117c0,0,0.023-0.117-0.023-0.187c-0.048-0.07-0.234-0.235-0.282-0.329
			c-0.047-0.094-0.023-0.164-0.093-0.328c-0.07-0.164-0.023-0.164-0.095-0.258c-0.07-0.094-0.139-0.141-0.139-0.141
			s-0.096-0.141-0.307-0.047S85.381,14.815,85.381,14.815z"/>
		<path class="st0" d="M89.014,18.917c0.095,0.188,0.282,0.445,0.398,0.633c0.118,0.188,0.306,0.352,0.4,0.516
			c0.092,0.164,0.233,0.328,0.303,0.375c0.071,0.047,0.188,0.023,0.259,0c0.07-0.023,0.187,0,0.187-0.211s0.048-0.141,0-0.352
			c-0.047-0.211,0.095-0.117-0.069-0.328c-0.165-0.211-0.14-0.234-0.328-0.422c-0.188-0.188-0.188-0.258-0.306-0.352
			c-0.116-0.094-0.14-0.164-0.257-0.164c-0.118,0-0.07-0.047-0.188,0C89.296,18.659,89.014,18.917,89.014,18.917z"/>
		<path class="st0" d="M90.843,21.237c0.023,0.141,0,0.281,0.117,0.445s0.233,0.328,0.258,0.398c0.023,0.071,0.07,0.188,0.163,0.234
			c0.095,0.047,0.329,0.047,0.469-0.141c0.142-0.188,0.119-0.188,0.235-0.328c0.117-0.141,0-0.047,0.305-0.211
			c0.304-0.164,0.422-0.164,0.538-0.211c0.119-0.047,0.142-0.047,0.235-0.211s0.141-0.14,0.163-0.328
			c0.023-0.188,0.048-0.188,0.095-0.281s0.234,0,0.023-0.375s-0.047-0.328-0.211-0.375s-0.117-0.188-0.398,0.023
			s-0.188,0.188-0.397,0.328c-0.212,0.141-0.306,0.164-0.377,0.234c-0.069,0.07-0.069,0.07-0.069,0.07l-0.022,0.328
			c0,0-0.048,0.023-0.143,0.047c-0.093,0.023-0.257,0.117-0.374,0.117s-0.188,0.047-0.306,0.023c-0.116-0.023-0.14-0.07-0.233-0.023
			S90.843,21.237,90.843,21.237z"/>
		<path class="st0" d="M93.866,19.221c0,0,0.023,0.047,0,0.188s-0.07,0.234,0,0.375s0.164,0.352,0.259,0.375
			c0.092,0.023,0.022,0.258,0.351,0.07s0.328-0.117,0.563-0.375s0.375-0.352,0.375-0.586s-0.164-0.258-0.094-0.305
			s0-0.023,0.141-0.094s0.094-0.047,0.257-0.117c0.165-0.07,0.118,0.023,0.329-0.117s0.235-0.094,0.258-0.211
			c0.023-0.117,0.023,0.047,0.069-0.211c0.048-0.258,0.048-0.422,0.048-0.422s0-0.141-0.117-0.164s-0.188-0.07-0.398-0.047
			s-0.281,0.047-0.469,0.141s-0.211-0.141-0.398,0.281c-0.188,0.422-0.188,0.703-0.188,0.703s0.023,0-0.211,0.047
			s-0.562,0.117-0.562,0.117L93.866,19.221z"/>
		<path class="st0" d="M97.217,16.081c0,0-0.187,0.141-0.304,0.328c-0.118,0.188-0.398,0.375-0.188,0.492s0.234,0.234,0.539,0.141
			s0.397,0.047,0.469-0.164c0.07-0.211,0.117-0.234,0.117-0.398s0.117-0.211-0.047-0.305S97.217,16.081,97.217,16.081z"/>
		<path class="st0" d="M98.343,14.768c-0.211,0.164-0.305,0.164-0.328,0.492s0,0.492,0.117,0.563s0.258,0.305,0.445,0.234
			s0.163,0.141,0.492-0.258c0.328-0.398,0.352-0.328,0.422-0.539s0.188-0.211,0.188-0.328s0.07-0.141,0.023-0.305
			s-0.047-0.234-0.095-0.352c-0.046-0.117,0.142-0.375-0.092-0.188c-0.235,0.188-0.329,0.188-0.47,0.352
			c-0.14,0.164-0.234,0.305-0.234,0.305s0.117,0.211-0.071,0.023C98.554,14.581,98.343,14.768,98.343,14.768z"/>
		<path class="st0" d="M100.124,13.432c0,0-0.047,0.211-0.069,0.398c-0.024,0.188-0.024,0.375,0.046,0.539s0.117,0.281,0.258,0.281
			s0.211,0,0.305-0.141s0.07-0.188,0.141-0.398s-0.07-0.328,0.211-0.352s0.352,0,0.422,0s-0.07,0.047,0.165,0
			c0.233-0.047,0.116,0.07,0.327-0.07c0.212-0.141,0.117-0.047,0.281-0.211s0.141,0,0.211-0.234s0.141-0.211,0.094-0.398
			s-0.047-0.188-0.164-0.398s0.07-0.258-0.21-0.258c-0.282,0-0.095-0.633-0.469,0.094c-0.376,0.727-0.399,0.844-0.399,0.844
			c-0.21-0.07-0.188-0.117-0.352-0.117s-0.516-0.117-0.516-0.117s-0.047,0-0.117,0.211S100.124,13.432,100.124,13.432z"/>
		<path class="st0" d="M103.007,11.698l-0.211,0.703l0.281,0.329c0,0,0.164,0.07,0.281-0.047s0.258-0.141,0.352-0.282
			c0.094-0.14,0.117-0.117,0.234-0.257s0.141-0.094,0.212-0.188c0.07-0.094,0.116-0.094,0.163-0.188
			c0.047-0.094,0.07-0.398,0.023-0.516c-0.046-0.117,0.141-0.375-0.07-0.375s-0.281,0-0.445,0.094s-0.234,0.164-0.398,0.258
			C103.265,11.322,103.007,11.698,103.007,11.698z"/>
		<path class="st0" d="M104.741,10.127c-0.07,0.352-0.094,0.445,0,0.586s0.117,0.422,0.258,0.375s0.281,0,0.398-0.117
			s0.07,0,0.234-0.188c0.164-0.187,0.212-0.023,0.305-0.281c0.094-0.258,0.352-0.023,0.117-0.469s-0.234-0.469-0.352-0.539
			s-0.117-0.258-0.328-0.141C105.163,9.471,104.741,10.127,104.741,10.127z"/>
		<path class="st0" d="M106.265,9.213c0.262,0.175,0.703,0.586,0.75,0.773s0.023,0.257,0.117,0.305
			c0.094,0.047,0.375,0.258,0.375,0.258s0.211-0.188,0.258-0.258s0.07,0.023,0.188-0.188s0.281-0.281,0.211-0.375
			s-0.023,0.047-0.211-0.258c-0.188-0.305-0.375-0.867-0.398-0.96s-0.047-0.305-0.117-0.328s-0.07-0.141-0.211-0.023
			s-0.094,0.164-0.304,0.305c-0.212,0.141-0.141,0.094-0.376,0.258C106.313,8.885,106.194,9.166,106.265,9.213z"/>
		<path class="st0" d="M108.093,11.042c0.024,0.115,0.446,0.984,0.446,0.984l0.233,0.117l0.281,0.164c0,0,0.047,0.023,0.141,0.047
			s0.164,0.023,0.234-0.023s0.188,0,0.188-0.141s-0.048-0.164-0.07-0.398c-0.024-0.234,0-0.188-0.024-0.422
			c-0.023-0.234,0.141-0.234-0.07-0.398s-0.188-0.117-0.352-0.281c-0.163-0.164-0.305-0.305-0.352-0.375
			c-0.047-0.071,0.023-0.164-0.141-0.071C108.444,10.338,107.976,10.479,108.093,11.042z"/>
		<path class="st0" d="M109.851,13.292c0.094,0.281,0.328,0.656,0.328,0.656s0.258,0.258,0.328,0.375s0.094,0.258,0.164,0.211
			s0.07-0.047,0.07-0.047s0.117-0.07,0.141-0.188s0.258-0.047,0.258-0.188s-0.117-0.516-0.117-0.633s-0.023-0.352-0.023-0.422
			s0.117,0-0.094-0.188c-0.21-0.188-0.305-0.281-0.375-0.305s-0.141-0.023-0.141-0.023s-0.188,0.094-0.258,0.141
			s-0.094-0.07-0.141,0.117S109.851,13.292,109.851,13.292z"/>
		<path class="st0" d="M111.257,15.073c0.283,0.203,0.117,0.445,0.211,0.586s0.258,0.398,0.306,0.492
			c0.046,0.094,0.14,0.398,0.233,0.352s0.306-0.023,0.375-0.211c0.07-0.188,0.047-0.305,0.164-0.445s0.281-0.281,0.328-0.352
			s0.211-0.117,0.094-0.281c-0.116-0.164-0.164-0.305-0.305-0.422s0.048-0.188-0.234-0.164c-0.281,0.023-0.164,0.141-0.398,0.07
			s-0.305-0.047-0.375-0.094S111.094,14.956,111.257,15.073z"/>
		<path class="st0" d="M113.25,13.995c-0.048,0.211-0.07,0.375,0.07,0.68c0.14,0.305,0.351,0.563,0.351,0.563
			s0.281,0.211,0.398-0.07s0.188-0.398,0.188-0.586s-0.118-0.211,0.022-0.305s-0.188-0.07,0.234-0.117
			c0.423-0.047,0.445-0.07,0.516-0.07s0.047,0,0.211-0.047c0.165-0.047,0.235-0.023,0.352-0.07c0.117-0.047,0.328,0.07,0.305-0.164
			c-0.022-0.234,0-0.234-0.07-0.352s-0.164,0.305-0.117-0.234s0.141-0.469,0.047-0.539s-0.421-0.211-0.516-0.188
			c-0.094,0.023-0.304,0.164-0.469,0.305c-0.164,0.14-0.117,0.14-0.304,0.352c-0.188,0.211-0.353,0.469-0.423,0.469
			s0.07,0.117-0.141,0s-0.328,0.047-0.398,0.117S113.25,13.995,113.25,13.995z"/>
		<path class="st0" d="M116.296,12.049c0,0.141,0.07,0.234,0.07,0.539s-0.117,0.398-0.023,0.492s0.094,0.164,0.212,0.164
			c0.116,0,0.116,0.047,0.304-0.117s0.211-0.234,0.211-0.234s0.117,0.046,0.188-0.211c0.07-0.258,0.117-0.282,0.141-0.398
			c0.023-0.117,0.047-0.234,0.07-0.398c0.024-0.164,0.047-0.141,0-0.234s-0.141-0.352-0.328-0.329
			c-0.187,0.024-0.141-0.023-0.328,0.071c-0.187,0.094-0.281,0.188-0.375,0.258S116.296,12.049,116.296,12.049z"/>
		<g>
			<path class="st1" d="M12.172,31.819c-0.199,0.116-0.428,0.341-0.687,0.674c-0.241-0.14-0.509-0.399-0.808-0.777
				c-0.04,0.039-0.061,0.148-0.061,0.329c-0.321-0.32-0.543-0.827-0.666-1.524c-0.692-0.776-1.039-1.664-1.039-2.66
				c-0.136-0.118-0.36-0.338-0.67-0.656c-0.174-0.22-0.32-0.3-0.437-0.24c-0.021-0.357,0.02-0.597,0.119-0.717
				c-0.14-0.1-0.219-0.148-0.238-0.148c-0.28,0-0.449,0.029-0.509,0.088c0-0.099-0.021-0.487-0.06-1.165
				c-0.02,0-0.189-0.119-0.509-0.358c0-0.417,0-0.826,0-1.225c-0.02-0.339-0.129-0.628-0.329-0.866c-0.12,0-0.179,0.079-0.179,0.238
				c-0.12-0.238-0.27-0.358-0.449-0.358c-0.22,0.04-0.38,0.13-0.479,0.269c-0.099,0.141-0.159,0.21-0.179,0.21
				c-0.101,0-0.166-0.039-0.195-0.119c-0.03-0.08-0.065-0.12-0.105-0.12c-0.219,0.26-0.508,0.637-0.867,1.136
				c-0.041,0-0.085-0.051-0.135-0.15c-0.05-0.099-0.085-0.169-0.104-0.208c-0.12,0.1-0.255,0.264-0.404,0.492
				c-0.149,0.229-0.285,0.404-0.404,0.523c-0.02-0.16-0.09-0.379-0.209-0.657l-0.398,0.42c-0.205,0.201-0.316,0.561-0.338,1.081
				c0.069,0.061,0.197,0.091,0.385,0.091c0.039,0.36-0.01,0.541-0.15,0.541l-0.053,1.532c0-0.02,0.147-0.03,0.442-0.03
				c0.079,0.66,0.269,1.691,0.568,3.094c-0.22,0.26-0.419,0.391-0.598,0.391c-0.121,0-0.214-0.039-0.283-0.118
				c-0.068-0.077-0.112-0.116-0.129-0.116c-0.121,0.196-0.121,0.41,0,0.646c-0.391-0.079-0.712-0.368-0.966-0.866
				c-0.196-0.398-0.293-0.787-0.293-1.166c0-0.199,0.081-0.298,0.24-0.298l0.179-0.24c0-0.158-0.1-0.237-0.299-0.237
				c0,0.019,0.03-0.161,0.09-0.539c0.04-0.2-0.011-0.399-0.149-0.599c0,0.021,0.029,0.062,0.089,0.12
				c0.039-0.04,0.069-0.084,0.09-0.135c0.02-0.05,0.04-0.094,0.059-0.134c-0.261-0.14-0.392-0.259-0.392-0.358
				c0.124-0.398,0.187-0.737,0.187-1.017c0-0.837-0.085-1.404-0.257-1.703c-0.173-0.299-0.258-0.458-0.258-0.479
				c0-0.079,0.061-0.293,0.182-0.643c0.122-0.348,0.201-0.543,0.239-0.583c0-0.139-0.058-0.148-0.175-0.029
				c-0.019-0.06-0.01-0.309,0.03-0.747c0.019-0.259-0.107-0.398-0.379-0.419c0.412-0.077,0.618-0.418,0.618-1.016
				c0-0.1-0.101-0.508-0.304-1.225S0.24,17.93,0.24,17.849c0-0.199,0.135-0.438,0.406-0.717c-0.1-0.139-0.191-0.209-0.27-0.209
				c-0.092,0-0.137,0.011-0.137,0.029c0.031,0.041,0.046,0.081,0.046,0.12c0.02-0.238,0.05-0.487,0.089-0.747
				c0.039-0.259,0.128-0.418,0.266-0.478c-0.077-0.1-0.211-0.15-0.401-0.15C0.079,14.603,0,13.965,0,13.786
				c0-0.178,0.089-0.448,0.268-0.807c0.095,0.04,0.201,0.09,0.314,0.149c0.115,0.041,0.172-0.009,0.172-0.149
				c0-0.1-0.06-0.358-0.18-0.777c-0.141-0.498-0.222-0.827-0.241-0.986c0.06,0,0.24-0.069,0.541-0.209
				c0.02-0.139,0.005-0.273-0.045-0.403C0.78,10.475,0.754,10.4,0.754,10.379c0-0.119,0.11-0.218,0.33-0.298V9.812
				c0.02,0.02-0.08,0.029-0.299,0.029c-0.138,0-0.284-0.179-0.439-0.538h0.442c0.04-0.062-0.009-0.164-0.147-0.307
				C0.719,8.914,0.856,8.75,1.053,8.503C0.995,8.401,0.965,8.319,0.965,8.257c0.019,0,0.058,0.056,0.118,0.167
				C1.142,8.536,1.23,8.591,1.349,8.591c0.098,0,0.118-0.04,0.06-0.12c-0.06-0.08-0.04-0.12,0.058-0.12
				c0.28,0.063,0.46,0.094,0.542,0.094c0.08,0,0.129-0.031,0.15-0.094c0.02-0.062,0.07-0.094,0.15-0.094
				c0.12,0,0.245,0.06,0.375,0.178C2.815,8.554,2.919,8.612,3,8.612c0.1,0,0.209-0.02,0.33-0.06c0.12-0.04,0.19-0.061,0.21-0.061
				c0.14-0.119,0.26,0.031,0.361,0.451c0.019-0.04,0.049-0.104,0.09-0.195c0.04-0.09,0.08-0.136,0.12-0.136
				c0.14,0.141,0.24,0.211,0.3,0.211c0.1,0,0.15-0.035,0.15-0.105s0.05-0.105,0.151-0.105c0.1,0,0.361,0.096,0.781,0.286
				c0.42,0.191,0.676,0.286,0.767,0.286c0.09,0,0.17,0.035,0.241,0.104c0.07,0.07,0.145,0.105,0.226,0.105
				c0.159,0,0.24-0.069,0.24-0.209c0.259,0.199,0.648,0.439,1.167,0.717c-0.141,0-0.259,0.04-0.359,0.12
				c0.119,0.16,0.327,0.399,0.624,0.718l0.179-0.209c0.118-0.02,0.197,0.019,0.236,0.119c0.079,0.22,0.156,0.37,0.236,0.449
				c0.118-0.02,0.267-0.1,0.444-0.24c0,0.299,0.148,0.448,0.447,0.448c0,0.16-0.1,0.289-0.299,0.388l0.18,0.179
				c0.06,0,0.1,0.041,0.12,0.121c0.02,0.08,0.089,0.119,0.209,0.119c0.08,0,0.121-0.07,0.121-0.209c0,0.299-0.016,0.488-0.047,0.567
				c0.07,0.061,0.176,0.25,0.315,0.568c0.139,0.319,0.209,0.538,0.209,0.657c-0.35,0.598-0.525,0.907-0.525,0.926
				c0,0.379,0.139,0.648,0.419,0.807c-0.061,0.061-0.215,0.11-0.466,0.15c0,0.936,0,1.415,0,1.434c-0.02,0-0.108-0.129-0.267-0.389
				c-0.157,0.14-0.177,0.27-0.058,0.389c-0.079-0.06-0.157-0.09-0.236-0.09c-0.04,0.22-0.089,0.438-0.148,0.657
				c-0.06,0.26-0.06,0.519,0,0.777c-0.177,0.22-0.359,0.458-0.546,0.718c-0.187,0.259-0.28,0.528-0.28,0.807l-0.27-0.239
				c-0.02,0-0.05,0.021-0.09,0.06c-0.04,0.04-0.1,0.06-0.18,0.06s-0.119,0.08-0.119,0.239l-0.24-0.27
				c-0.04,0.279-0.15,0.658-0.329,1.136l-0.21-0.209c-0.12,0.1-0.179,0.22-0.179,0.358c0,0.061,0.188,0.46,0.568,1.195
				c0.378,0.738,0.548,1.284,0.508,1.644c0.1,0.141,0.18,0.379,0.24,0.717c0.059,0.398,0.119,0.668,0.179,0.808
				c0.12,0,0.179-0.109,0.179-0.329c0.14,0.34,0.477,1.036,1.015,2.092c0.338,0.658,0.508,1.137,0.508,1.435
				c0.122,0.1,0.313,0.22,0.572,0.358c0,0.021,0.02,0.096,0.059,0.225c0.04,0.13,0.08,0.193,0.121,0.193
				c-0.121,0.141-0.259,0.21-0.419,0.21c0-0.04,0.015-0.104,0.045-0.194c0.03-0.089,0.045-0.154,0.045-0.194l-0.149-0.179
				l-0.18,0.209v0.508l0.18,0.18c0.119-0.139,0.219-0.21,0.299-0.21c-0.041,0.246-0.12,0.492-0.24,0.737
				c0.02,0.042,0.06,0.113,0.12,0.217c0.061,0.102,0.1,0.174,0.12,0.214c0.298-0.438,0.449-0.816,0.449-1.136
				c0.079,0.06,0.099,0.289,0.059,0.688c0.06,0.06,0.12,0.07,0.181,0.029c0.059-0.039,0.089-0.089,0.089-0.148
				c0.419,0.299,0.628,0.732,0.628,1.301C12.202,31.681,12.192,31.76,12.172,31.819z M0.379,21.112v-0.329H0.146v0.329H0.379z
				 M0.954,17.881c-0.12-0.26-0.249-0.39-0.388-0.39c-0.021,0.021-0.03,0.17-0.03,0.449C0.814,17.941,0.954,17.921,0.954,17.881z
				 M1.036,11.753c-0.054,0-0.134-0.04-0.241-0.12l-0.134,0.27c0,0.12,0.04,0.25,0.122,0.389c0.082,0.14,0.123,0.229,0.123,0.269
				C0.992,12.322,1.036,12.052,1.036,11.753z M1.134,17.821v-0.629c-0.06,0-0.161,0.04-0.3,0.12
				C0.994,17.652,1.093,17.821,1.134,17.821z M1.165,26.994H0.896l-0.019-0.179h0.288V26.994z M1.732,12.859
				c-0.177-0.239-0.266-0.488-0.266-0.747c-0.1,0.14-0.149,0.309-0.149,0.508C1.318,12.78,1.456,12.859,1.732,12.859z M1.764,19.045
				l-0.15-0.09l-0.239,0.389l0.149,0.12L1.764,19.045z M9.308,14.174v-0.358c-0.02,0-0.045,0.016-0.075,0.045
				c-0.031,0.03-0.095,0.044-0.191,0.044c-0.056,0-0.083-0.398-0.083-1.195c-1.05-0.896-1.664-1.663-1.843-2.3l-0.358,0.328
				c0-0.638,0.02-0.937,0.06-0.897C6.738,10,6.618,10.19,6.458,10.41c-0.06-0.04-0.09-0.14-0.09-0.3l-0.18,0.21
				c-0.021-0.06-0.04-0.14-0.06-0.239c-0.021-0.1-0.05-0.169-0.09-0.209c0-0.139-0.089-0.109-0.27,0.09L5.53,9.752
				c0,0.18-0.04,0.319-0.119,0.419c-0.12,0-0.24-0.06-0.359-0.18c0.06-0.12,0.129-0.279,0.209-0.478
				C4.683,9.813,4.304,9.962,4.124,9.962c-0.12,0-0.205-0.075-0.254-0.224C3.82,9.588,3.785,9.513,3.765,9.513
				c0,0.159-0.03,0.269-0.091,0.328c-0.021-0.02-0.011-0.079,0.03-0.179c0.021-0.039-0.021-0.06-0.123-0.06
				c-0.143,0-0.695,0.12-1.655,0.359c-0.02,0.438-0.089,0.717-0.209,0.836c0.279,0.299,0.418,0.569,0.418,0.808
				c0,0.896-0.14,1.444-0.418,1.643c-0.04,0.239-0.11,0.398-0.209,0.479c0.279,0.279,0.418,0.538,0.418,0.776
				c0,0.24-0.049,0.419-0.148,0.539c-0.041-0.04-0.082-0.12-0.121-0.24c-0.04-0.119-0.08-0.199-0.119-0.239
				c0,0.08-0.025,0.204-0.075,0.374c-0.049,0.17-0.075,0.264-0.075,0.284c0.299,0.16,0.479,0.339,0.538,0.538
				c0,1.375-0.016,2.49-0.046,3.347c-0.041,0.598-0.09,1.042-0.151,1.33c-0.06,0.288-0.089,0.403-0.089,0.343
				c0-0.099,0.133,0.141,0.4,0.718c-0.109,0.021-0.242,0.09-0.399,0.21v0.985c0.08,0,0.213,0.09,0.399,0.269
				c-0.127,0.14-0.189,0.24-0.189,0.299h0.482c0.625-0.478,1.55-1.154,2.778-2.032c0.12,0.14,0.17,0.21,0.15,0.21
				c0-0.239,0.02-0.379,0.061-0.419c0.12,0.12,0.239,0.18,0.359,0.18c-0.101-0.159-0.15-0.289-0.15-0.39
				c0-0.099,0.069-0.229,0.209-0.388c0.14-0.159,0.219-0.269,0.24-0.329c0.159,0.319,0.229,0.659,0.209,1.018
				c0.02-0.02,0.049-0.209,0.089-0.568c0.04-0.299,0.141-0.488,0.3-0.568c-0.02-0.178,0.034-0.428,0.165-0.747
				c0.129-0.318,0.284-0.479,0.464-0.479c0.079,0,0.109,0.021,0.09,0.061c-0.021,0.04,0.019,0.061,0.12,0.061
				c0.438-0.857,0.876-1.794,1.315-2.81c0.188,0.18,0.311,0.26,0.368,0.239c-0.038-0.279-0.013-0.672,0.076-1.18
				C9.264,14.608,9.308,14.294,9.308,14.174z M1.74,24.902H1.585v-0.388h0.177L1.74,24.902z M2.164,23.438l-0.15-0.09l-0.239,0.39
				l0.149,0.119L2.164,23.438z M7.266,22.362l-0.06-0.149l-0.269,0.12v0.148L7.266,22.362z M7.595,19.434H7.416l-0.061,0.388h0.18
				L7.595,19.434z M7.925,25.599L7.746,25.48l-0.24,0.389l0.149,0.12L7.925,25.599z M8.044,26.198h-0.24v-0.329h0.24V26.198z
				 M8.493,18.835h-0.18l-0.12-0.508h0.18L8.493,18.835z M8.493,18.985h-0.18l-0.12,0.539h0.18L8.493,18.985z M8.493,26.486H8.343
				l-0.15-0.239l0.15-0.061L8.493,26.486z M9.613,12.292c0-0.159-0.121-0.369-0.363-0.628c0.02,0.099-0.052,0.279-0.217,0.538
				c-0.144-0.04-0.215-0.219-0.215-0.538c-0.1,0-0.229,0.08-0.39,0.239c0.021,0.06,0.07,0.149,0.15,0.269
				c0.08,0.12,0.14,0.19,0.18,0.209c0-0.039,0.091-0.059,0.275-0.059c0.103,0,0.227,0.079,0.371,0.239
				C9.404,12.382,9.474,12.292,9.613,12.292z M8.821,11.096H8.643l-0.119,0.389l0.148,0.06L8.821,11.096z M8.882,28.519
				c-0.06,0-0.151,0.05-0.27,0.149c-0.06-0.119-0.089-0.26-0.089-0.419c0-0.14,0.029-0.26,0.089-0.359
				C8.673,28.011,8.762,28.22,8.882,28.519z M9.032,17.67l-0.179-0.09l-0.15,0.33l0.15,0.06L9.032,17.67z M9.879,29.773H9.702
				v-0.419h0.178V29.773z M10.356,13.009h-0.179l-0.149,0.389l0.179,0.06L10.356,13.009z"/>
			<path class="st1" d="M23.466,24.193c-0.181,0-0.31-0.029-0.39-0.089l-0.09,0.398c-0.041,0.171-0.11,0.255-0.211,0.255
				c-0.099,0-0.184-0.014-0.254-0.042c-0.07-0.029-0.155-0.044-0.255-0.044s-0.179,0.038-0.24,0.114
				c-0.061,0.075-0.141,0.113-0.24,0.113s-0.121-0.038-0.06-0.113c0.06-0.076,0.04-0.114-0.06-0.114c-0.101,0-0.21,0.063-0.33,0.185
				c-0.121,0.123-0.22,0.183-0.3,0.183c-0.101,0-0.19-0.047-0.271-0.14c-0.08-0.095-0.17-0.142-0.27-0.142
				c-0.101,0-0.21,0.063-0.33,0.188c-0.121,0.125-0.23,0.188-0.33,0.188c-0.08,0-0.2-0.039-0.36-0.118
				c-0.159-0.077-0.29-0.116-0.389-0.116c-0.101,0-0.181,0.039-0.24,0.116c-0.06,0.079-0.14,0.118-0.239,0.118
				c-0.081,0-0.095-0.039-0.046-0.118c0.05-0.077,0.025-0.116-0.074-0.116s-0.3,0.1-0.6,0.3c-0.379,0.281-0.629,0.441-0.749,0.481
				c0.099,0.481,0.237,0.712,0.416,0.691c0,0.06,0.024,0.215,0.074,0.465c0.049,0.251,0.074,0.447,0.074,0.587
				c0.673,0.903,1.347,1.824,2.021,2.766c0.019,0.161,0.069,0.24,0.148,0.24c0.098,0,0.321-0.04,0.668-0.122
				c0.347-0.081,0.575-0.122,0.684-0.122c0.108,0,0.153-0.041,0.133-0.123v-0.244c0.092,0.122,0.211,0.133,0.359,0.03
				c-0.02,0.204,0.018,0.398,0.111,0.581c0.055,0,0.138-0.061,0.249-0.182c-0.042-0.021-0.094-0.026-0.157-0.015
				c-0.063,0.01-0.093-0.047-0.093-0.169c0-0.1,0.103-0.252,0.309-0.456c-0.011,0.777-0.011,1.167,0,1.167
				c0.263-0.18,0.394-0.379,0.394-0.599c0-0.078-0.072-0.348-0.214-0.808c0.099,0,0.326,0.158,0.683,0.474v0.415
				c-0.419,0.138-0.697,0.414-0.836,0.828c-0.121,0-0.25-0.073-0.388-0.221c-0.08,0.075-0.229,0.227-0.448,0.456h-0.418
				c0.04-0.192,0.01-0.384-0.089-0.576c-0.12,0.153-0.349,0.346-0.687,0.576l-0.239-0.235c0.04,0.095-0.031,0.142-0.21,0.142
				c-0.1,0-0.14-0.04-0.119-0.117c0.019-0.079-0.021-0.117-0.12-0.117c-0.12,0-0.17,0.029-0.149,0.087l0.06,0.147
				c-0.021,0-0.06-0.062-0.12-0.182c-0.061-0.12-0.149-0.181-0.269-0.181c-0.1,0-0.14,0.021-0.12,0.063
				c0.02,0.043-0.02,0.064-0.12,0.064c-0.06,0-0.249-0.281-0.568-0.844l-0.24,0.268c-0.12-0.32-0.239-0.479-0.359-0.479
				c-0.14,0-0.209,0.07-0.209,0.212c-0.04-0.156-0.219-0.361-0.539-0.615c0.079-0.077,0.12-0.194,0.12-0.351L16.63,28.89
				c-0.06,0.08-0.09,0.16-0.09,0.24c-0.08-0.14-0.23-0.31-0.448-0.509c0.119-0.139,0.18-0.299,0.18-0.479
				c0-0.279-0.15-0.657-0.449-1.137c-0.479-0.797-0.728-1.216-0.748-1.257c0.1,0,0.189,0.03,0.269,0.09
				c0.04-0.117,0.219-0.325,0.539-0.621l-0.18-0.179c-0.04,0.039-0.11,0.078-0.21,0.116c-0.1,0.039-0.149,0.077-0.149,0.115
				c0.04-0.079,0.02-0.193-0.06-0.343c-0.081-0.149-0.12-0.274-0.12-0.375c0-0.08,0.064-0.239,0.193-0.479
				c0.129-0.238,0.193-0.429,0.193-0.568l0.267,0.239c0.099-0.119,0.148-0.238,0.148-0.359c0-0.099-0.14-0.309-0.422-0.629V22.25
				c0.14-0.119,0.269-0.364,0.388-0.733c0.12-0.369,0.189-0.559,0.209-0.568c0.02-0.01,0.039-0.055,0.06-0.135
				c0.02-0.079,0.089-0.119,0.209-0.119c0.02,0,0.079-0.145,0.179-0.434s0.149-0.494,0.149-0.614l0.239,0.239
				c0.159-0.341,0.447-0.762,0.866-1.264c0.596-0.722,1.093-1.083,1.491-1.083c1.71,0,2.884,0.663,3.521,1.987
				c-0.041-0.06-0.101-0.06-0.18,0c-0.1,0.081-0.149,0.17-0.149,0.27c0.06,0.061,0.119,0.069,0.179,0.03
				c0.06-0.061,0.09-0.12,0.09-0.18c0.179,0.16,0.329,0.389,0.449,0.688c-0.299,0-0.449-0.04-0.449-0.12l-0.15,0.21
				c0.122,0,0.294,0.22,0.518,0.657c0.041,0.061,0.142,0.09,0.305,0.09V24.193z M16.152,22.638l-0.18-0.061l-0.149,0.299l0.18,0.061
				L16.152,22.638z M16.361,27.365v-0.33h-0.18v0.33H16.361z M17.438,27.665l-0.18-0.061l-0.15,0.299l0.179,0.061L17.438,27.665z
				 M21.356,23.685c0-0.08-0.04-0.294-0.117-0.644c-0.079-0.349-0.117-0.604-0.117-0.764c-0.041-1.396-0.12-2.373-0.24-2.932
				c-0.021-0.119-0.12-0.254-0.3-0.403c-0.181-0.149-0.321-0.225-0.42-0.225c-0.701,0.559-1.211,1.107-1.532,1.646
				c-0.04-0.039-0.1-0.08-0.18-0.119c-0.081-0.04-0.141-0.08-0.181-0.12c0.021,0.559-0.13,1.177-0.45,1.855
				c0,0.021-0.13,0.029-0.39,0.029c0,0.359-0.051,0.759-0.15,1.197c0,0.1,0.065,0.279,0.194,0.538
				c0.128,0.26,0.193,0.449,0.193,0.568c1.588,0,2.778-0.079,3.572-0.239c0-0.02,0.02-0.06,0.059-0.119
				C21.336,23.894,21.356,23.804,21.356,23.685z M17.648,27.245l-0.313-0.149l-0.058,0.18l0.285,0.148L17.648,27.245z M17.648,29.25
				h-0.149l-0.15,0.389l0.179,0.09L17.648,29.25z"/>
			<path class="st1" d="M36.665,23.412c0,0.279-0.075,0.692-0.224,1.241c-0.15,0.549-0.224,1.093-0.224,1.631
				c-0.517,0.06-0.786,0.278-0.806,0.658c-0.021,0.24-0.03,0.479-0.03,0.718c-0.219,0.18-0.717,0.499-1.493,0.956
				c0.139,0.121,0.237,0.15,0.298,0.091c-0.361,0.239-0.871,0.658-1.531,1.258c0.04-0.041,0.06-0.086,0.06-0.135
				c0-0.051,0.02-0.096,0.06-0.135c-0.041-0.041-0.111-0.062-0.21-0.062c-0.24,0-0.321,0.14-0.24,0.419
				c-0.1-0.039-0.23-0.109-0.39-0.209c-0.041,0-0.061,0.101-0.061,0.3c-0.06,0-0.16,0.02-0.3,0.06
				c-0.142,0.04-0.261,0.06-0.361,0.06c-0.14,0-0.235-0.045-0.286-0.135c-0.05-0.09-0.084-0.185-0.104-0.284
				c-0.12,0-0.18,0.07-0.18,0.209h-0.39c0-0.159-0.07-0.298-0.21-0.419c0.04,0-0.05,0.101-0.27,0.3
				c-0.081,0.039-0.12,0.16-0.12,0.359c0,0.079,0.01,0.22,0.03,0.419c0,0.199,0,0.358,0,0.478c0,0.658-0.15,1.127-0.449,1.407
				c0.039,0.039,0.109,0.039,0.209,0l0.209-0.061c0,0.02,0.02,0.089,0.059,0.209c0.039,0.12,0.06,0.229,0.06,0.33
				c0,0.079-0.07,0.273-0.208,0.583c-0.139,0.309-0.209,0.503-0.209,0.583c0-0.04,0.04,0.154,0.119,0.584
				c0.079,0.428,0.099,0.861,0.06,1.301c0.04,0.199,0.03,0.498-0.03,0.898c-0.021,0.099,0.02,0.243,0.12,0.434
				c0.1,0.188,0.149,0.323,0.149,0.403c0,0.398-0.1,0.788-0.299,1.167c0.079,0.159,0.139,0.349,0.18,0.569
				c0.039,0.278-0.02,0.457-0.18,0.538c0.16,0.338,0.12,0.587-0.119,0.747c0.04,0.039,0.138,0.061,0.298,0.061
				c0.079,0.238,0.039,0.697-0.12,1.376c-0.079-0.081-0.188-0.12-0.325-0.12v0.419h-0.618c0-0.04,0.043-0.081,0.132-0.119
				c0.088-0.041,0.152-0.081,0.192-0.121c-0.098,0-0.314-0.019-0.648-0.059c-0.137,0-0.353-0.16-0.647-0.479v-1.346
				c0.133,0,0.229-0.021,0.29-0.061c-0.1-0.239-0.15-0.438-0.15-0.599c0-0.14,0.039-0.27,0.117-0.389
				c0.078-0.119,0.117-0.199,0.117-0.238c0-0.101-0.068-0.23-0.203-0.389c-0.136-0.161-0.203-0.28-0.203-0.359l0.149-0.12
				c0.139-0.618,0.21-1.147,0.21-1.586c0.037,0,0.103-0.021,0.198-0.059c0.094-0.041,0.159-0.061,0.198-0.061
				c-0.08,0.278-0.09,0.448-0.03,0.509c0.079-0.08,0.139-0.19,0.18-0.329c0.039-0.28,0.069-0.43,0.089-0.449
				c-0.1-0.1-0.28-0.09-0.537,0.03c0.04-0.459-0.04-0.748-0.238-0.867v-3.291c0.159,0,0.309-0.07,0.449-0.21
				c0-0.06-0.06-0.14-0.18-0.239l-0.269,0.18c0.247-0.339,0.372-0.629,0.372-0.868c-0.019-0.04-0.095-0.08-0.228-0.119
				c0-0.021,0.124-0.737,0.372-2.154c0-0.039,0-0.357,0-0.957c0-0.479-0.055-0.718-0.164-0.718c-0.11,0-0.165-0.09-0.165-0.27
				c0.062-0.139,0.124-0.279,0.185-0.419c0.144-0.278,0.307-0.468,0.491-0.568c0.04-0.02,0.031-0.06-0.03-0.119
				c-0.169,0.14-0.344,0.119-0.522-0.061c0.059-1.336,0.159-2.104,0.298-2.303c0,0.22,0.045,0.358,0.135,0.418
				c0.059-0.159,0.068-0.329,0.029-0.508c-0.11-0.22-0.165-0.339-0.165-0.359c0-0.179,0.08-0.239,0.24-0.18
				c0.059-0.12,0.069-0.219,0.03-0.299c-0.021,0,0.069-0.07,0.269-0.21c-0.39-0.358-0.593-0.553-0.608-0.583
				c-0.016-0.029-0.024-0.145-0.024-0.344c0-0.239,0.061-0.419,0.184-0.538c0,0.04,0.042,0.119,0.124,0.239
				c0.122,0,0.255-0.07,0.398-0.21c0.06-0.22-0.063-0.329-0.368-0.329c-0.103,0-0.174,0.01-0.215,0.029
				c-0.042,0.021-0.081,0.03-0.123,0.03c0.062-0.06,0.297-0.179,0.706-0.358c-0.126-0.139-0.283-0.377-0.471-0.714v-0.595
				c0.059,0,0.148,0.03,0.269,0.09c0.04-0.04,0.104-0.084,0.193-0.134c0.089-0.05,0.154-0.095,0.194-0.134
				c-0.08-0.279-0.229-0.693-0.447-1.249v-1.249c0.497-0.155,0.845-0.234,1.044-0.234c0.079,0,0.198,0.079,0.357,0.234
				c0.1-0.039,0.169-0.029,0.209,0.03c-0.14,0.673-0.2,1.771-0.179,3.296c0.046,0,0.161-0.079,0.348-0.239
				c0.159,0.319,0.229,0.568,0.209,0.748c-0.1-0.119-0.19-0.14-0.269-0.061c0.079,0.061,0.198,0.149,0.358,0.269
				c0.179-0.258,0.278-0.487,0.299-0.688c0.04-0.278,0.088-0.507,0.149-0.688l0.269,0.209c0.06,0,0.12,0.029,0.179,0.09l0.269-0.18
				c-0.06,0.041-0.06,0.101,0,0.18c0.08,0.079,0.17,0.119,0.269,0.119c0.1-0.1,0.139-0.239,0.12-0.418l0.209,0.21
				c0.159-0.3,0.348-0.448,0.567-0.448c0.1,0,0.234,0.055,0.404,0.164c0.169,0.11,0.293,0.165,0.374,0.165
				c0.119,0,0.229-0.051,0.329-0.15c-0.06,0.061-0.021,0.15,0.119,0.27c0.06-0.08,0.09-0.149,0.09-0.209
				c0.538,0.139,0.976,0.558,1.314,1.256c0.259,0.538,0.508,1.077,0.747,1.615c-0.08-0.02-0.149,0.02-0.209,0.119
				c-0.12,0.159-0.199,0.25-0.239,0.27c0.115,0.021,0.262,0.109,0.437,0.27c-0.118,0-0.204-0.03-0.262-0.09
				c-0.116,0.1-0.174,0.18-0.174,0.239c0.115,0.12,0.212,0.179,0.29,0.179c0.058,0,0.087-0.069,0.087-0.209
				C36.602,22.763,36.665,23.052,36.665,23.412z M28.282,41.391l-0.15-0.06l-0.15,0.299l0.15,0.06L28.282,41.391z M28.274,22.847
				h-0.21v-0.299h0.21V22.847z M28.274,30.146v-0.389h-0.21v0.389H28.274z M28.637,30.087c-0.04,0-0.109,0.015-0.209,0.044
				c-0.099,0.03-0.169,0.045-0.209,0.045c0,0.14,0.025,0.27,0.074,0.389c0.05,0.12,0.075,0.19,0.075,0.21
				C28.368,30.675,28.458,30.446,28.637,30.087z M28.668,40.105c-0.201,0-0.301-0.071-0.301-0.21c0,0.04-0.02,0.1-0.058,0.18
				c-0.039,0.079-0.058,0.139-0.058,0.179C28.431,40.253,28.569,40.204,28.668,40.105z M28.462,34.99V34.6h-0.188v0.39H28.462z
				 M28.462,40.792v-0.299h-0.188v0.299H28.462z M28.818,25.416l-0.15-0.12l-0.239,0.389l0.121,0.091L28.818,25.416z M28.97,30.865
				l-0.418-0.12c0.04,0.04,0.04,0.1,0,0.18c-0.06,0.119-0.089,0.188-0.089,0.209C28.5,31.094,28.591,31.049,28.73,31
				C28.87,30.949,28.949,30.905,28.97,30.865z M29.474,38.429l-0.12-0.12l-0.269,0.27l0.12,0.119L29.474,38.429z M29.553,24.342
				c0-0.1-0.08-0.238-0.239-0.418c-0.101,0.1-0.15,0.279-0.15,0.538c0.04,0,0.11-0.02,0.209-0.06S29.533,24.342,29.553,24.342z
				 M29.592,39.656h-0.149l-0.149,0.358l0.179,0.061L29.592,39.656z M35.146,23.396c-0.05-0.05-0.075-0.084-0.075-0.104
				c-0.06,0.079-0.089,0.165-0.089,0.254c0,0.091-0.081,0.185-0.239,0.284c-0.036-0.398-0.068-0.972-0.094-1.72
				c-0.027-0.748-0.059-1.321-0.094-1.72l-0.272,0.119c-0.081,0-0.152-0.075-0.212-0.225c-0.061-0.149-0.141-0.224-0.242-0.224
				c-1.371,0-2.531,0.419-3.478,1.256c-0.081,0.778-0.243,1.267-0.484,1.467v1.136c0,0.16,0.061,0.24,0.183,0.24
				c-0.04,0.04-0.055,0.109-0.045,0.209c0.01,0.1-0.005,0.17-0.044,0.21c-0.103-0.061-0.204-0.09-0.303-0.09v1.136
				c0.202,0.121,0.303,0.28,0.303,0.479c0,0.12-0.042,0.289-0.123,0.509c-0.082-0.02-0.159-0.074-0.229-0.164
				c-0.071-0.09-0.117-0.136-0.138-0.136c0.099,0.199,0.129,0.399,0.09,0.599c0.238,0,0.387,0.04,0.447,0.12
				c0,0.558-0.016,0.986-0.047,1.286c-0.032,0.298-0.048,0.409-0.048,0.328c0.122-0.039,0.334-0.03,0.638,0.03
				c0.304,0.061,0.475,0.09,0.516,0.09c0.16,0,0.384-0.139,0.667-0.42c0.142,0.122,0.213,0.23,0.213,0.33
				c0.258-0.418,0.527-0.777,0.807-1.076c0.139,0.141,0.218,0.21,0.239,0.21c0.217-0.579,0.534-1.099,0.949-1.557
				c0.158-0.917,0.425-1.595,0.801-2.034l0.478-0.599C35.221,23.521,35.196,23.446,35.146,23.396z M30.375,29.065v-0.389h-0.179
				v0.389H30.375z M32.276,20.061v-0.419h-0.179v0.419H32.276z M33.5,19.551l-0.12-0.657h-0.179l0.089,0.657H33.5z M34.786,27.091
				c-0.1-0.039-0.239-0.119-0.418-0.239v0.509C34.468,27.322,34.607,27.231,34.786,27.091z M35.058,25v-0.717h-0.209V25H35.058z
				 M36.044,26.104l-0.388-0.359l-0.12,0.09l0.389,0.389L36.044,26.104z"/>
			<path class="st1" d="M40.293,25.749h-0.18v-0.297h0.18V25.749z M48.653,24.423c0,0.221-0.04,0.56-0.119,1.018
				c-0.119,0.559-0.238,0.837-0.357,0.837h-0.389l-0.179,0.18c0.02,0.081,0.08,0.2,0.179,0.36c0.02,0,0.079-0.045,0.179-0.135
				c0.1-0.09,0.18-0.145,0.24-0.165c-0.16,0.738-0.41,1.765-0.748,3.081c0-0.079-0.041-0.159-0.12-0.239
				c-0.06,0.2-0.089,0.489-0.089,0.867c-0.041-0.06-0.091-0.128-0.15-0.209c-0.14,0.021-0.26,0.13-0.359,0.329
				c-0.14,0.34-0.229,0.538-0.269,0.599c-0.399,0.041-0.729,0.197-0.988,0.469c0-0.102,0.03-0.191,0.09-0.271l-0.149-0.15
				c-0.22,0.135-0.549,0.338-0.987,0.609c-0.06-0.156-0.25-0.234-0.569-0.234c0.16-0.345,0.748-1.174,1.766-2.491
				c0.08-0.597,0.25-1.555,0.509-2.871c0.04-0.18,0.229-0.409,0.569-0.688c0.278-0.26,0.378-0.548,0.299-0.867
				c0,0.179,0.032,0.289,0.097,0.328V24.15c-0.103,0.06-0.245,0.2-0.429,0.419c0.127-0.359,0.192-0.698,0.192-1.018
				c0-0.299-0.091-0.887-0.271-1.765c-0.201-1.057-0.401-1.585-0.602-1.585c-0.081,0-0.11,0.015-0.09,0.044
				c0.02,0.03-0.02,0.045-0.12,0.045c-0.102,0-0.251-0.1-0.452-0.299c-0.201-0.198-0.321-0.379-0.361-0.538
				c-0.787,0.438-1.48,1.41-2.08,2.916c-0.6,1.506-0.899,2.877-0.899,4.113c0,1.656,0.634,2.933,1.904,3.83
				c0.119,0.06,0.179,0.24,0.179,0.538c-0.239,0-0.359,0.063-0.359,0.188c0-0.125-0.05-0.188-0.149-0.188l-0.299,0.24
				c-0.04-0.116-0.12-0.295-0.238-0.535c-0.277,0.04-0.436,0.006-0.476-0.104c-0.039-0.11-0.08-0.224-0.119-0.345
				c-0.06,0.08-0.089,0.149-0.089,0.209c-0.099-0.06-0.228-0.233-0.386-0.523c-0.16-0.289-0.288-0.434-0.386-0.434
				c-0.1,0-0.159,0.021-0.179,0.06c-0.02,0.041-0.04,0.061-0.059,0.061c-0.02-0.438,0.01-0.768,0.09-0.987l-0.15-0.18
				c-0.021,0.04-0.1,0.25-0.239,0.628c-0.16-0.358-0.38-0.906-0.659-1.646v-0.358c0.08,0.06,0.19,0.089,0.33,0.089
				c0.06-0.039,0.09-0.129,0.09-0.269c0-0.18-0.141-0.479-0.419-0.897c0.04,0.061,0.1,0.061,0.18,0c0.08-0.039,0.12-0.09,0.12-0.15
				c-0.081-0.438-0.031-1.275,0.149-2.513c0.04,0,0.119,0.03,0.239,0.09c0.199-0.039,0.289-0.318,0.269-0.838
				c0.256,0,0.375,0,0.355,0c0.159-0.119,0.227-0.278,0.208-0.478c-0.04-0.32-0.059-0.499-0.059-0.54
				c0.177-0.218,0.494-0.547,0.949-0.986c0-0.239-0.06-0.289-0.18-0.149c0.499-0.957,0.808-1.506,0.928-1.646
				c0.299-0.319,0.768-0.479,1.406-0.479c0.08,0,0.145,0.035,0.195,0.105s0.125,0.104,0.224,0.104c0.139,0,0.339-0.07,0.599-0.21
				c0-0.099-0.02-0.009-0.06,0.27c0,0.101,0.05,0.15,0.149,0.15s0.159-0.015,0.179-0.045c0.02-0.029,0.04-0.045,0.061-0.045
				c0,0.04-0.016,0.1-0.046,0.18c-0.029,0.08-0.044,0.14-0.044,0.179l0.179,0.181c0.2-0.199,0.3-0.34,0.3-0.419
				c0.696,0.657,1.182,1.376,1.462,2.153C48.484,21.671,48.653,22.888,48.653,24.423z M41.041,24.671l-0.149-0.298l-0.15,0.06
				l0.15,0.238H41.041z M41.2,25.57c-0.071,0-0.151,0.034-0.241,0.104c-0.09,0.07-0.135,0.135-0.135,0.194
				c0.02-0.039,0.05-0.06,0.09-0.06c0.19,0,0.27,0.159,0.239,0.478C41.184,26.208,41.2,25.968,41.2,25.57z M41.247,24.462v-0.389
				H41.06v0.389H41.247z M41.903,27.873v-0.389h-0.183v0.389H41.903z M45.186,18.449l-0.15-0.06l-0.149,0.27l0.149,0.06
				L45.186,18.449z M46.351,19.646l-0.119-0.3l-0.15,0.061l0.12,0.239H46.351z M46.919,25.749v-0.297h-0.188v0.297H46.919z
				 M47.496,20.125l-0.03-0.149l-0.357,0.119v0.15L47.496,20.125z"/>
			<path class="st1" d="M60.621,22.575c0,0.12-0.159,0.289-0.478,0.509c-0.14-0.139-0.23-0.21-0.27-0.21
				c-0.04,0.181-0.12,0.431-0.24,0.75c0-0.04-0.03-0.11-0.089-0.21l-0.269,0.18c0.1-0.1,0.109-0.2,0.03-0.3
				c-0.04,0.061-0.149,0.089-0.328,0.089c0.105-0.139,0.158-0.29,0.158-0.449c0-0.1-0.053-0.229-0.155-0.389
				c-0.104-0.16-0.174-0.289-0.211-0.39c0.139,0.14,0.249,0.209,0.328,0.209c0.119-0.119,0.179-0.209,0.179-0.269
				c0-0.26-0.089-0.479-0.269-0.659c-0.199,0.2-0.279,0.3-0.239,0.3c0.02-0.299-0.049-0.489-0.208-0.569
				c0.18-0.16,0.29-0.419,0.329-0.778c-0.159,0-0.239,0.021-0.239,0.06c-0.06-0.179-0.199-0.269-0.417-0.269
				c-0.08,0-0.129,0.02-0.149,0.06c-0.021,0.039-0.07,0.06-0.149,0.06c-0.12,0-0.249-0.14-0.388-0.419
				c-0.12,0.04-0.24,0.21-0.358,0.509c-0.021,0-0.1-0.069-0.239-0.209c-0.139,0.14-0.209,0.279-0.209,0.419
				c0.02-0.14-0.039-0.24-0.178-0.3c-0.08,0.14-0.12,0.34-0.12,0.599c-0.101-0.139-0.273-0.209-0.516-0.209l-0.212,0.209
				c0,0.141,0,0.34,0,0.6c-0.268,0.22-0.492,0.79-0.675,1.707c-0.144,0.659-0.215,1.129-0.215,1.408
				c0,0.239,0.068,0.359,0.206,0.359c0.098,0,0.148-0.05,0.148-0.149c0,0.22-0.123,0.39-0.367,0.509l0.2,0.18v0.659
				c-0.078,0.1-0.257,0.34-0.536,0.719l0.09,0.568c0.06-0.039,0.129-0.144,0.208-0.313c0.081-0.17,0.15-0.264,0.21-0.284
				c-0.039,0.079-0.039,0.17,0,0.269c0.05,0.141,0.075,0.22,0.075,0.24c0,0.08-0.05,0.16-0.15,0.24l0.18,0.149
				c0.1-0.04,0.18-0.061,0.24-0.061c-0.12,0.061-0.16,0.22-0.12,0.479c0.119-0.12,0.18-0.199,0.18-0.239
				c0,0.24,0.046,0.595,0.14,1.063c0.093,0.469,0.14,0.733,0.14,0.793c0,0.52-0.161,0.919-0.482,1.199l-0.211-0.21
				c-0.021,0.021-0.026,0.06-0.016,0.12c0.01,0.06-0.035,0.09-0.135,0.09c-0.544,0-0.926-0.43-1.147-1.289
				c-0.14-0.519-0.211-1.058-0.211-1.617c0-0.279,0.169-0.539,0.509-0.779l-0.18-0.18l-0.417,0.12
				c-0.098-0.14-0.146-0.279-0.146-0.419c0-0.1,0.05-0.28,0.151-0.539c0.101-0.26,0.161-0.5,0.182-0.72
				c-0.021-0.059-0.06-0.089-0.12-0.089c-0.08,0.08-0.12,0.199-0.12,0.358c0-1.157,0.016-1.937,0.047-2.336
				c-0.081,0.06-0.15,0.089-0.209,0.089c-0.081-0.238-0.12-0.549-0.12-0.928c-0.159,0.02-0.238,0.158-0.238,0.419
				c-0.061-0.02-0.12-0.05-0.181-0.089c-0.06-0.04-0.089-0.11-0.089-0.211c0-0.159,0.08-0.399,0.24-0.718
				c0.059,0.06,0.12,0.089,0.179,0.089c0.04-0.039,0.03-0.13-0.03-0.27c-0.021-0.1,0.02-0.149,0.119-0.149s0.145,0.03,0.135,0.09
				s-0.005,0.1,0.016,0.119c0.182-0.179,0.273-0.548,0.273-1.107v-0.15c0-0.34,0.019-0.599,0.057-0.779
				c0.243-0.139,0.366-0.299,0.366-0.479l-0.173-0.18l-0.202,0.21c0-0.1,0.034-0.209,0.101-0.329c0.067-0.12,0.101-0.189,0.101-0.21
				c0-0.061-0.048-0.1-0.144-0.119c0.038-0.04,0.086-0.03,0.144,0.029c0.115-0.079,0.173-0.22,0.173-0.419
				c0-0.18-0.094-0.33-0.282-0.45c0.021-0.179,0.083-0.539,0.188-1.078c0.719,0.041,1.078,0.24,1.078,0.6
				c0,0.06-0.016,0.18-0.046,0.359c-0.04,0.141-0.04,0.239,0,0.3c0,0.1-0.033,0.244-0.096,0.435
				c-0.064,0.19-0.085,0.345-0.065,0.464l0.208-0.21c0.04,0.08,0.04,0.18,0,0.3c-0.031,0.16-0.046,0.27-0.046,0.33
				c0,0.1,0.149,0.309,0.448,0.628c0.178-0.219,0.358-0.428,0.538-0.628c0.239-0.28,0.408-0.42,0.507-0.42
				c0.1,0,0.139,0.021,0.12,0.061c-0.04,0.079-0.04,0.129,0,0.148l0.27-0.299c0.139,0,0.209-0.069,0.209-0.21
				c0.139,0.021,0.329,0.121,0.568,0.3c0.04,0,0.099-0.055,0.179-0.164c0.08-0.11,0.14-0.175,0.179-0.194
				c0.199-0.04,0.587-0.061,1.166-0.061c0.06,0,0.269,0.11,0.627,0.329c0.279,0.619,0.419,1.019,0.419,1.198
				c0,0.04-0.01,0.21-0.03,0.51c-0.04,0.22-0.04,0.389,0,0.509s0.149,0.359,0.329,0.719C60.531,22.246,60.621,22.475,60.621,22.575z
				 M53.576,22.489c-0.04,0-0.11,0.02-0.209,0.06c-0.1,0.039-0.17,0.059-0.209,0.059c0.079,0.061,0.169,0.121,0.27,0.18
				C53.486,22.728,53.536,22.627,53.576,22.489z M53.988,27.007c-0.1-0.459-0.15-0.758-0.15-0.897
				c-0.099,0.299-0.22,0.599-0.359,0.897C53.499,27.007,53.668,27.007,53.988,27.007z M53.791,20.986v-0.269h-0.171l-0.016,0.269
				H53.791z M54.274,24.972c-0.26,0.061-0.389,0.23-0.389,0.509c0,0.101,0.09,0.24,0.27,0.419
				C54.233,25.64,54.274,25.331,54.274,24.972z M54.274,17.811h-0.389c0,0.04,0.08,0.14,0.239,0.3
				C54.184,18.051,54.233,17.951,54.274,17.811z M54.543,17.392h-0.18l-0.12,0.359l0.15,0.06L54.543,17.392z M56.203,21.197h-0.179
				v-0.27h0.179V21.197z M57.665,19.758v-0.27h-0.18v0.27H57.665z M58.441,19.37c-0.081,0-0.18,0.05-0.3,0.148
				c0.219,0.101,0.299,0.291,0.24,0.569C58.42,20.008,58.441,19.768,58.441,19.37z M59.322,21.315v-0.478h-0.187v0.478H59.322z
				 M59.642,21.436h-0.179l-0.06,0.6h0.18L59.642,21.436z M59.828,20.687l-0.119-0.3l-0.149,0.061l0.119,0.239H59.828z"/>
			<path class="st1" d="M62.903,19.856v-0.51h0.209v0.51H62.903z M72.194,28.115c-0.021,0.14-0.329,0.499-0.928,1.076
				c-0.639,0.639-1.097,0.958-1.376,0.958c-0.658,0-1.206-0.399-1.646-1.198c-0.199-0.479-0.398-0.958-0.596-1.438
				c0.059-0.039,0.107-0.05,0.147-0.03c0.099,0.041,0.188,0.061,0.27,0.061c-0.24-0.38-0.388-0.669-0.445-0.869
				c0.058-0.278-0.009-0.987-0.196-2.125c0.08-0.1,0.17-0.2,0.27-0.3c-0.04-0.061-0.103-0.13-0.188-0.209
				c-0.085-0.08-0.128-0.19-0.128-0.33c0-0.06,0.03-0.105,0.094-0.135c0.063-0.03,0.094-0.085,0.094-0.165
				c0-0.119-0.06-0.339-0.179-0.659c0.019-0.139,0.055-0.259,0.104-0.358c0.05-0.101,0.074-0.18,0.074-0.24
				c0,0.08-0.04,0.15-0.119,0.21c-0.08,0.04-0.149,0.03-0.209-0.03v-0.658c0.109-0.28,0.219-0.449,0.328-0.509
				c-0.02-0.519-0.069-0.918-0.149-1.198c0.08-0.039,0.164-0.114,0.253-0.224c0.089-0.11,0.143-0.165,0.163-0.165
				c0.197,0.199,0.296,0.319,0.296,0.358c0-0.238,0.13-0.358,0.39-0.358c0.039,0.061,0.088,0.021,0.148-0.119
				c0.06-0.139,0.1-0.229,0.12-0.27c0.238,0.259,0.438,0.429,0.599,0.509c0.06,0.24,0.099,0.429,0.119,0.567
				c0.159-0.616,0.17-1.193,0.03-1.729c-0.759,0.039-1.349,0-1.77-0.12c0-0.158-0.04-0.357-0.119-0.597
				c-0.16-0.337-0.25-0.526-0.27-0.566l0.27-0.238c0.1-0.1,0.229-0.14,0.389-0.12v-2.118c-0.283-0.337-0.445-0.596-0.485-0.775
				c0.021-0.02,0.086-0.064,0.197-0.134c0.111-0.07,0.167-0.134,0.167-0.194c-0.263,0-0.396-0.099-0.396-0.298
				c0.061-0.039,0.11-0.06,0.15-0.06c0.119-0.019,0.179,0.03,0.179,0.149c0-0.735-0.094-1.252-0.281-1.551
				c0,0.358-0.079,0.538-0.236,0.538c-0.139-0.319-0.228-0.545-0.267-0.679c-0.654,0.22-0.921,0.568-0.802,1.046
				c0.12,0,0.181,0.11,0.181,0.329c-0.271,0.16-0.429,0.399-0.47,0.718c0,0.239,0,0.479,0,0.718c0-0.079,0.042-0.169,0.126-0.269
				c0.229,0.359,0.344,0.787,0.344,1.286c0,0.199-0.086,0.39-0.255,0.568c0.318,0.12,0.536,0.2,0.655,0.239
				c-0.179,0.14-0.337,0.449-0.477,0.928c-0.1,0.397-0.198,0.797-0.298,1.195c-0.557,0-1.143,0.09-1.759,0.27
				c-0.735,0.239-1.103,0.529-1.103,0.867c0,0.279,0.069,0.479,0.207,0.598c0.415-0.219,0.671-0.308,0.77-0.269
				c0.237,0.379,0.632,0.618,1.185,0.718c0.434,0.06,0.651,0.27,0.651,0.628c0,0.18-0.073,0.439-0.22,0.778
				c0.334,0,0.501,0.17,0.501,0.508c0,0.14-0.052,0.27-0.155,0.389c-0.126,0.181-0.199,0.289-0.22,0.329
				c-0.063,0.14-0.094,0.369-0.094,0.688c0,0.558-0.02,0.917-0.06,1.078c0.385,0,0.607,0.108,0.67,0.327
				c-0.157,0.16-0.303,0.239-0.439,0.239l-0.322-0.27c0.02,0.599,0.03,1.047,0.03,1.346c0-0.419,0.058-0.737,0.171-0.957
				c0.348-0.02,0.571,0.011,0.672,0.089c-0.12,0.121-0.271,0.34-0.455,0.659c-0.183,0.319-0.332,0.549-0.448,0.689
				c0.25,0.199,0.451,0.35,0.604,0.449c0-0.078,0.044-0.17,0.131-0.27l0.197,0.239v1.439l-0.389,0.42
				c0.1,0.101,0.278,0.37,0.536,0.81c0.178,0.32,0.336,0.48,0.475,0.48c0.098,0,0.138-0.023,0.118-0.07
				c-0.021-0.047,0.029-0.071,0.148-0.071c0.138,0,0.207,0.142,0.207,0.422c0.358-0.187,0.598-0.28,0.718-0.28
				s0.244,0.085,0.374,0.257s0.254,0.259,0.374,0.259c0.119,0,0.164-0.017,0.135-0.048c-0.029-0.03,0.015-0.046,0.135-0.046
				c0.14,0,0.204,0.057,0.195,0.173c-0.012,0.115,0.004,0.183,0.044,0.202c0-0.173,0.079-0.345,0.239-0.517
				c0.139,0.134,0.119,0.306-0.06,0.517h0.479c0.358-0.396,0.638-0.583,0.838-0.563c-0.021-0.054-0.03-0.116-0.03-0.188
				c0-0.183,0.109-0.387,0.329-0.611c0.199-0.16,0.398-0.33,0.598-0.51c0.16,0.16,0.27,0.239,0.33,0.239
				c-0.18-0.559-0.131-1.016,0.149-1.376C72.304,28.374,72.194,28.214,72.194,28.115z M65.972,21.051v-0.479h0.234v0.479H65.972z
				 M66.275,16.499l-0.149,0.629h0.209l0.18-0.629H66.275z M66.369,24.971l-0.163-0.897h0.26l0.162,0.897H66.369z M66.769,22.637
				l-0.358-0.18l0.09-0.209l0.358,0.18L66.769,22.637z M66.872,15.003l-0.21,0.059l0.18,0.449h0.18L66.872,15.003z M66.799,21.321
				v-0.478h0.21v0.478H66.799z M67.099,17.552l-0.18,0.358L67.128,18l0.149-0.359L67.099,17.552z M67.218,24.043l-0.149,0.359
				l0.18,0.09l0.18-0.359L67.218,24.043z M67.667,15.159l-0.21-0.09l0.18-0.329l0.179,0.06L67.667,15.159z M69.761,30.758
				l-0.329,0.155v0.22l0.39-0.188L69.761,30.758z M70.119,18.539H69.88v0.51h0.239V18.539z M70.359,18.838v-0.24h0.389v0.24H70.359z
				"/>
			<path class="st1" d="M99.417,10.91c-0.08,0.24-0.22,0.598-0.419,1.078c-0.18,0.06-0.374,0.125-0.583,0.194
				c-0.21,0.071-0.344,0.234-0.404,0.494l-0.389-0.389c-0.279,0.419-0.608,1.008-0.986,1.766c-0.2,0.04-0.685,0.304-1.452,0.793
				s-1.142,0.733-1.121,0.733c-0.14,0-0.209,0.08-0.209,0.24c-0.062,0-0.171,0.05-0.33,0.149c0-0.18-0.029-0.31-0.09-0.389
				c-0.159,0.16-0.399,0.41-0.718,0.749c0,0.279,0.131,0.419,0.39,0.419c0.099,0,0.148-0.025,0.148-0.075s0.061-0.075,0.18-0.075
				c0.12,0,0.244,0.06,0.374,0.18c0.129,0.12,0.215,0.19,0.255,0.21h0.299c0.119,0,0.204-0.02,0.254-0.06
				c0.051-0.04,0.085-0.061,0.104-0.061c0,0.021-0.1,0.229-0.299,0.629c0-0.04-0.05-0.129-0.149-0.27
				c-0.22-0.02-0.329,0.13-0.329,0.448c0-0.119-0.091-0.179-0.27-0.179c-0.119,0-0.199,0.02-0.239,0.06
				c0.04-0.06-0.01-0.169-0.149-0.329c-0.12,0-0.189,0.17-0.209,0.509c-0.12,0-0.31,0-0.567,0c-0.261,0-0.439,0-0.539,0
				c-0.12,0-0.18,0.09-0.18,0.27c-0.081-0.119-0.25-0.289-0.51-0.509c-0.021,0.02-0.05,0.109-0.09,0.27
				c-0.039,0.159-0.119,0.239-0.239,0.239c-0.119,0-0.174-0.035-0.164-0.104c0.01-0.07-0.006-0.125-0.045-0.165
				c-0.119,0.14-0.329,0.31-0.629,0.509l-0.238-0.239c-0.04,0.021-0.051,0.09-0.03,0.21c0.02,0.119-0.028,0.179-0.15,0.179
				c0.04,0-0.169-0.02-0.627-0.06c-0.3-0.04-0.571-0.029-0.816,0.029c-0.081,0.52-0.12,1.457-0.12,2.813
				c-0.021,1.138-0.133,2.005-0.336,2.604l0.03,0.299c0.02,0.16,0.02,0.289,0,0.39c-0.021,0.14-0.082,0.22-0.184,0.239
				c0-0.02,0-0.034,0-0.045c0-0.01,0-0.005,0,0.015c0,0.021,0,0.08,0,0.18c0,0.101,0.047,0.19,0.141,0.27
				c0.199,0.159,0.319,0.26,0.359,0.299c-0.079,0.2-0.229,0.529-0.443,0.988c0.056-0.101,0.084-0.249,0.084-0.45h-0.28
				c0,0.121-0.085,0.271-0.253,0.45c-0.168,0.18-0.252,0.318-0.252,0.419s0.049,0.21,0.148,0.329c-0.039-0.06-0.109-0.06-0.207,0
				c-0.061,0.08-0.089,0.149-0.089,0.209c0.038-0.119,0.009-0.298-0.09-0.538c-0.101-0.239-0.149-0.39-0.149-0.449
				c0-0.12,0.069-0.279,0.21-0.479c0.199-0.299,0.301-0.459,0.301-0.479c0.058-0.039-0.001-0.06-0.181-0.06
				c-0.12,0-0.181,0.04-0.181,0.12s-0.05,0.11-0.149,0.09h-0.361c0.366-0.239,0.549-0.549,0.549-0.929
				c0-0.179-0.05-0.403-0.147-0.673c-0.102-0.27-0.151-0.424-0.151-0.464c0-0.14,0.05-0.423,0.151-0.853
				c0.098-0.429,0.147-0.743,0.147-0.943c0-0.237-0.044-0.429-0.13-0.568c-0.018-0.1,0.096-0.279,0.34-0.538
				c-0.04-0.039-0.075-0.114-0.105-0.224c-0.029-0.11-0.064-0.186-0.104-0.226c-0.035,0.04-0.073,0.125-0.117,0.255
				c-0.043,0.13-0.082,0.214-0.117,0.254c0.011-0.18,0.105-0.52,0.287-1.019c0.179-0.438,0.271-0.718,0.271-0.838
				c0-0.1-0.087-0.214-0.257-0.344c-0.169-0.13-0.254-0.205-0.254-0.226l0.088-0.358c0,0.18,0.109,0.269,0.329,0.269
				c0.08-0.358-0.137-0.628-0.651-0.807l0.022-0.479c0.098,0.08,0.186,0.119,0.266,0.119c0.058-0.079,0.087-0.158,0.087-0.238
				c0-0.061-0.023-0.149-0.07-0.27c-0.047-0.119-0.07-0.21-0.07-0.27c0-0.18,0.184-0.329,0.551-0.449
				c-0.12-0.978-0.209-1.966-0.27-2.963l-0.35,0.239c0-0.06,0.034-0.209,0.105-0.449c0.069-0.239,0.104-0.409,0.104-0.509V10.61
				c-0.157-0.16-0.303-0.169-0.441-0.03c0.139-0.12,0.209-0.269,0.209-0.449c0-0.119-0.102-0.338-0.302-0.658
				s-0.312-0.539-0.331-0.659c0.02-0.059,0.09-0.169,0.209-0.329v0.419c0.08,0.04,0.199,0.11,0.358,0.209
				c0.199-0.1,0.298-0.339,0.298-0.719c0.185-0.219,0.348-0.139,0.491,0.24c0.203,0,0.306-0.129,0.306-0.39
				c0.04,0,0.139,0.08,0.297,0.24c0.079-0.08,0.118-0.25,0.118-0.509c0.219,0.052,0.517,0.187,0.895,0.406
				c0.22-0.27,0.409-0.39,0.568-0.359c0,0.422,0.06,0.703,0.18,0.841c0.06-0.099,0.089-0.348,0.089-0.747
				c0.181-0.04,0.509,0,0.988,0.12c0.199,0,0.319-0.04,0.359-0.12c0.12,0.319,0.229,0.528,0.328,0.628
				c0-0.04,0.025-0.135,0.075-0.284c0.05-0.15,0.064-0.264,0.045-0.344c0.559,0.181,0.996,0.222,1.316,0.121
				c0.119,0.242,0.349,0.544,0.688,0.906c-0.359,0.08-0.679-0.01-0.958-0.269c-0.06,0.08-0.09,0.16-0.09,0.239
				c-0.239,0-0.604,0.025-1.092,0.075s-0.772,0.075-0.853,0.075c-0.1,0-0.199-0.08-0.299-0.24c-0.16-0.239-0.26-0.378-0.3-0.419
				c0,0.359-0.239,0.61-0.718,0.749c-0.696,0.18-1.084,0.299-1.163,0.359c0.277,1.098,0.415,2.425,0.415,3.981
				c0,1.197-0.093,2.096-0.277,2.694c0.04,0.06,0.075,0.124,0.106,0.193c0.03,0.07,0.067,0.126,0.108,0.165
				c0.021,0,0.076-0.064,0.167-0.194c0.09-0.129,0.195-0.194,0.314-0.194c0.1,0,0.14,0.021,0.12,0.06
				c-0.021,0.04,0.029,0.06,0.149,0.06c0.099,0,0.15-0.04,0.15-0.119c0-0.08,0.049-0.12,0.148-0.12c0.121,0,0.209,0.045,0.269,0.135
				c0.061,0.09,0.11,0.135,0.15,0.135c0.06-0.299,0.049-0.549-0.028-0.748l0.327-0.299c-0.12,0.18-0.08,0.269,0.12,0.269
				c0.12,0,0.18-0.02,0.18-0.059c-0.04-0.14-0.06-0.189-0.06-0.15c0,0.24,0.089,0.519,0.27,0.838
				c0.199-0.199,0.338-0.43,0.418-0.688c-0.04-0.06-0.12-0.07-0.239-0.031l-0.269,0.06c0.159-0.198,0.358-0.358,0.599-0.479
				c0.099,0.14,0.148,0.26,0.148,0.36c0,0.039-0.01,0.08-0.03,0.119c0,0.061,0,0.101,0,0.121c0,0.179,0.13,0.397,0.39,0.657
				c0.22-0.079,0.319-0.279,0.3-0.599c0-0.458,0.02-0.717,0.059-0.778c0.039,0.121,0.149,0.33,0.33,0.628
				c0.119-0.078,0.179-0.229,0.179-0.449c0,0.14,0.041,0.239,0.12,0.3c0.039-0.08,0.049-0.229,0.03-0.449
				c-0.061-0.319-0.091-0.538-0.091-0.658c0.239-0.08,0.399-0.121,0.479-0.121c0,0.2-0.029,0.34-0.091,0.419
				c0.062,0.101,0.171,0.241,0.331,0.419h0.418v-0.538c-0.12-0.1-0.289-0.259-0.509-0.479c0.16-0.06,0.389-0.01,0.688,0.149
				c-0.021-0.119,0.119-0.368,0.418-0.748c0,0.26,0.11,0.389,0.331,0.389c0.058-0.139,0.147-0.359,0.269-0.658
				c0,0.1,0.038,0.19,0.118,0.269c0.101-0.179,0.14-0.479,0.12-0.897l0.27,0.269c0.04-0.159,0.119-0.408,0.239-0.749l0.718-0.688
				c0.419-0.398,0.628-0.788,0.628-1.167c0-0.299-0.18-0.469-0.538-0.508c-0.459-0.08-0.769-0.229-0.928-0.449
				c-0.159,0.16-0.319,0.239-0.478,0.239c-0.101,0-0.226-0.06-0.375-0.18c-0.149-0.119-0.284-0.179-0.403-0.179
				c-0.12,0-0.234,0.015-0.345,0.045c-0.109,0.03-0.175,0.044-0.194,0.044V8.755c0.06-0.02,0.14-0.03,0.239-0.03
				c0.26,0,0.678,0.065,1.257,0.195c0.578,0.13,0.896,0.194,0.957,0.194c0.062,0,0.185,0.11,0.374,0.33s0.334,0.329,0.434,0.329
				c0.12,0,0.181-0.089,0.181-0.27c0.059,0.121,0.119,0.24,0.179,0.359c0.1,0.18,0.219,0.269,0.359,0.269
				c0.1,0,0.139-0.02,0.119-0.059c-0.021-0.04,0.02-0.06,0.12-0.06c0.299,0,0.463,0.095,0.493,0.284
				c0.03,0.19,0.055,0.379,0.075,0.569s0.149,0.285,0.389,0.285C99.098,11.149,99.257,11.069,99.417,10.91z M101.085,22.283
				c-0.101-0.119-0.261-0.349-0.479-0.688c-0.021-0.199,0.028-0.369,0.148-0.509c-0.02-0.14-0.13-0.618-0.328-1.437
				c-0.22,0.22-0.329,0.229-0.329,0.03c-0.081-0.061-0.23-0.319-0.448-0.778c0,0.26-0.07,0.389-0.21,0.389
				c-0.101-0.159-0.14-0.419-0.12-0.778c-0.22,0.14-0.519,0.31-0.897,0.51c0.039-0.12-0.04-0.409-0.239-0.868
				c-0.04-0.139-0.917-0.478-2.633-1.017c0.06,0.08,0.149,0.259,0.27,0.538c0.079,0.199,0.219,0.35,0.419,0.449
				c0.259-0.26,0.368-0.39,0.328-0.39c0.141,0.18,0.42,0.42,0.839,0.719c0.877,0.617,1.375,1.207,1.495,1.766s0.18,1.407,0.18,2.544
				c0,0.18-0.135,0.669-0.404,1.467s-0.474,1.287-0.613,1.466c0.299,0.121,0.449,0.33,0.449,0.629c0,0.04-0.04,0.27-0.119,0.688
				c-0.061-0.199-0.16-0.459-0.3-0.777c-0.359,0.239-0.957,0.776-1.795,1.612l0.181-0.029c0.099-0.02,0.168-0.02,0.208,0
				c0.08,0.039,0.12,0.109,0.12,0.209c0,0.06-0.11,0.179-0.328,0.357l-0.3-0.237c-0.199,0.138-0.759,0.556-1.676,1.252
				c-0.678,0.517-1.077,0.775-1.196,0.775c-0.1,0-0.14-0.025-0.12-0.075s-0.02-0.074-0.12-0.074c-0.02,0-0.329,0.169-0.927,0.508
				c-0.599,0.338-0.907,0.506-0.927,0.506c-0.101,0-0.215-0.039-0.345-0.116c-0.13-0.078-0.245-0.117-0.344-0.117
				c-0.499,0-0.968,0.108-1.406,0.328c-0.081,0.188-0.15,0.281-0.209,0.281c-0.26-0.22-0.43-0.329-0.508-0.329
				c-0.021-0.08-0.071-0.469-0.151-1.168c-0.041-0.46-0.243-0.7-0.609-0.721c0-0.219,0.078-0.487,0.234-0.807
				c0.02,0.039,0.138,0.339,0.353,0.897c-0.164-0.459-0.392-1.098-0.681-1.915c0,0.08-0.068,0.209-0.204,0.389
				s-0.204,0.329-0.204,0.448c0,0.16,0.077,0.41,0.233,0.749l-0.233,0.209c-0.059,0.08-0.166,0.29-0.321,0.628
				c-0.3-0.698-0.6-1.207-0.899-1.526c0.18,0.919,0.27,1.338,0.27,1.257c0-0.079,0.091-0.119,0.271-0.119s0.239,0.03,0.18,0.09
				c-0.04,0.12-0.06,0.309-0.06,0.568s-0.021,0.459-0.061,0.599c0.061,0,0.12-0.056,0.18-0.165c0.061-0.11,0.1-0.174,0.12-0.194
				c0.122,0.231,0.103,0.413-0.059,0.547c0.303,0.222,0.526,0.534,0.668,0.938c0.061,0,1.233,0,3.517,0
				c0-0.344,0.059-0.517,0.179-0.517v0.656c0.02,0,0.085-0.039,0.194-0.116c0.111-0.078,0.224-0.118,0.344-0.118
				s0.154,0.04,0.106,0.118c-0.051,0.077-0.017,0.116,0.104,0.116c0.101,0,0.14-0.016,0.12-0.046
				c-0.02-0.032,0.02-0.047,0.119-0.047s0.149,0.038,0.149,0.116s0.06,0.118,0.181,0.118c0.118,0,0.253-0.056,0.403-0.165
				c0.148-0.109,0.244-0.164,0.284-0.164c-0.08-0.075-0.01-0.216,0.21-0.421c0.019,0,0.034,0.038,0.045,0.117
				c0.009,0.077,0.074,0.117,0.194,0.117c0.1,0,0.169-0.04,0.21-0.119c0.038-0.079,0.112-0.118,0.223-0.118
				c0.109,0,0.186-0.079,0.225-0.238c0.04-0.157,0.069-0.247,0.091-0.267l0.209,0.18c0,0.039-0.021,0.109-0.061,0.211
				c-0.04,0.101-0.06,0.17-0.06,0.211c0.181-0.121,0.329-0.121,0.448,0c-0.021-0.404,0.141-0.774,0.479-1.11
				c0.04,0.021,0.085,0.084,0.136,0.194c0.05,0.109,0.104,0.165,0.164,0.165c0.04-0.119,0.12-0.284,0.239-0.494
				c0.12-0.209,0.2-0.373,0.239-0.493c0.16,0.159,0.299,0.239,0.419,0.239c0-0.199,0.069-0.369,0.209-0.509l0.3,0.27
				c0.3-0.061,0.523-0.265,0.673-0.614c0.148-0.349,0.245-0.523,0.284-0.523l0.27,0.119c0.259,0,0.468-0.209,0.628-0.628
				c0.141,0.08,0.29,0.05,0.449-0.09c-0.101-0.039-0.195-0.154-0.285-0.344c-0.088-0.19-0.164-0.324-0.223-0.404
				c0.059-0.1,0.158-0.25,0.299-0.449c0.039,0.04,0.084,0.105,0.134,0.194c0.05,0.09,0.095,0.155,0.135,0.194v-0.509
				c0.259,0,0.408-0.019,0.449-0.06c-0.181-0.16-0.24-0.27-0.18-0.329h0.658c0.019-0.378,0.051-0.748,0.09-1.107
				s0.18-0.589,0.419-0.688c0.1-0.219,0.129-0.438,0.089-0.658c-0.06-0.34-0.089-0.489-0.089-0.449c-0.04,0-0.071,0.021-0.091,0.06
				c-0.02,0.041-0.089,0.061-0.209,0.061c-0.199,0-0.22-0.061-0.06-0.181c0.16-0.159,0.24-0.259,0.24-0.299
				c-0.2-0.18-0.291-0.289-0.27-0.329c0.02-0.04-0.016-0.119-0.105-0.24c-0.09-0.119-0.135-0.199-0.135-0.239l0.3-0.358
				c0.019,0.18,0.069,0.39,0.149,0.629C100.766,22.333,100.904,22.283,101.085,22.283z M86.548,27.492h-0.18l-0.15-0.419l0.18-0.09
				L86.548,27.492z M86.548,24.828l-0.15-0.509l-0.179,0.09l0.15,0.419H86.548z M86.548,28.12l-0.15-0.358l-0.179,0.06l0.15,0.299
				H86.548z M87.411,27.484l-0.12-0.149l-0.567,0.568l0.119,0.149L87.411,27.484z M87.657,23.899c-0.061,0.061-0.132,0.061-0.21,0
				c-0.1-0.06-0.171-0.09-0.21-0.09c0,0.22,0.05,0.399,0.15,0.538c-0.062,0.041-0.182,0.011-0.364-0.089s-0.273-0.22-0.273-0.359
				c0-0.119,0.202-0.478,0.607-1.077c0.02,0.2-0.05,0.47-0.209,0.809C87.268,23.651,87.437,23.74,87.657,23.899z M87.178,25.067
				h-0.18l-0.148-0.3l0.179-0.059L87.178,25.067z M87.681,12.615l-0.18-0.089l-0.149,0.329l0.18,0.089L87.681,12.615z
				 M87.688,25.838V25.36h-0.234v0.479H87.688z M88.013,27.095c-0.06,0-0.159-0.08-0.298-0.239c-0.081,0.06-0.121,0.13-0.121,0.209
				c0-0.278,0.1-0.418,0.3-0.418C87.894,26.845,87.933,26.996,88.013,27.095z M87.834,30.027v-0.479h-0.24v0.479H87.834z
				 M91.988,31.273h-0.209v-0.468h0.209V31.273z M92.317,16.686c-0.021,0.041-0.149,0.22-0.389,0.539
				c0-0.379,0.029-0.708,0.09-0.988c0,0.021,0.05,0.081,0.149,0.181S92.317,16.607,92.317,16.686z M92.946,31.085
				c0,0.041-0.061,0.138-0.181,0.29s-0.199,0.259-0.238,0.319c-0.061-0.065-0.09-0.174-0.09-0.327c-0.021-0.132,0-0.226,0.06-0.282
				H92.946z M93.903,30.544l-0.18-0.39l-0.179,0.091l0.179,0.299H93.903z M95.279,17.612H95.07v-0.599h0.209V17.612z M96.446,12.615
				l-0.15-0.419h-0.209l0.149,0.479L96.446,12.615z M96.296,30.536h-0.209v-0.359h0.209V30.536z M96.806,29.018h-0.18l-0.15-0.3
				l0.18-0.09L96.806,29.018z M97.313,27.365v-0.359h-0.21v0.359H97.313z M97.583,27.784h-0.21l-0.149,0.599h0.209L97.583,27.784z
				 M99.288,25.719c-0.18,0-0.34-0.149-0.479-0.449c0.16-0.1,0.28-0.15,0.359-0.15c0,0.041,0.02,0.141,0.061,0.3
				C99.268,25.58,99.288,25.679,99.288,25.719z M99.468,21.261v-0.448h-0.21v0.448H99.468z M99.736,23.72h-0.208l-0.21,0.568
				l0.179,0.059L99.736,23.72z M100.096,20.249l-0.12-0.121l-0.447,0.42l0.12,0.149L100.096,20.249z"/>
			<path class="st1" d="M112.854,24.193c-0.181,0-0.31-0.029-0.39-0.089l-0.09,0.398c-0.041,0.171-0.111,0.255-0.21,0.255
				c-0.101,0-0.186-0.014-0.255-0.042c-0.07-0.029-0.156-0.044-0.256-0.044s-0.18,0.038-0.239,0.114
				c-0.06,0.075-0.141,0.113-0.24,0.113s-0.12-0.038-0.061-0.113c0.061-0.076,0.041-0.114-0.059-0.114
				c-0.101,0-0.211,0.063-0.33,0.185c-0.121,0.123-0.22,0.183-0.299,0.183c-0.102,0-0.191-0.047-0.271-0.14
				c-0.081-0.095-0.171-0.142-0.27-0.142c-0.102,0-0.212,0.063-0.331,0.188c-0.12,0.125-0.23,0.188-0.33,0.188
				c-0.079,0-0.199-0.039-0.359-0.118c-0.16-0.077-0.29-0.116-0.39-0.116c-0.101,0-0.181,0.039-0.24,0.116
				c-0.06,0.079-0.14,0.118-0.238,0.118c-0.082,0-0.097-0.039-0.047-0.118c0.051-0.077,0.025-0.116-0.074-0.116s-0.3,0.1-0.6,0.3
				c-0.38,0.281-0.629,0.441-0.75,0.481c0.1,0.481,0.237,0.712,0.416,0.691c0,0.06,0.024,0.215,0.074,0.465
				c0.049,0.251,0.073,0.447,0.073,0.587c0.674,0.903,1.347,1.824,2.021,2.766c0.02,0.161,0.069,0.24,0.149,0.24
				c0.098,0,0.32-0.04,0.667-0.122c0.347-0.081,0.575-0.122,0.684-0.122s0.153-0.041,0.133-0.123v-0.244
				c0.093,0.122,0.213,0.133,0.36,0.03c-0.02,0.204,0.019,0.398,0.11,0.581c0.055,0,0.138-0.061,0.249-0.182
				c-0.041-0.021-0.093-0.026-0.156-0.015c-0.063,0.01-0.094-0.047-0.094-0.169c0-0.1,0.103-0.252,0.31-0.456
				c-0.012,0.777-0.012,1.167,0,1.167c0.263-0.18,0.394-0.379,0.394-0.599c0-0.078-0.072-0.348-0.213-0.808
				c0.098,0,0.325,0.158,0.682,0.474v0.415c-0.419,0.138-0.697,0.414-0.837,0.828c-0.119,0-0.247-0.073-0.389-0.221
				c-0.079,0.075-0.229,0.227-0.447,0.456h-0.418c0.039-0.192,0.01-0.384-0.09-0.576c-0.119,0.153-0.349,0.346-0.688,0.576
				l-0.237-0.235c0.038,0.095-0.031,0.142-0.21,0.142c-0.101,0-0.141-0.04-0.12-0.117c0.02-0.079-0.02-0.117-0.119-0.117
				c-0.12,0-0.17,0.029-0.149,0.087l0.061,0.147c-0.021,0-0.061-0.062-0.12-0.182c-0.061-0.12-0.149-0.181-0.27-0.181
				c-0.1,0-0.14,0.021-0.12,0.063c0.02,0.043-0.02,0.064-0.119,0.064c-0.061,0-0.248-0.281-0.568-0.844l-0.24,0.268
				c-0.119-0.32-0.238-0.479-0.358-0.479c-0.14,0-0.209,0.07-0.209,0.212c-0.04-0.156-0.219-0.361-0.538-0.615
				c0.078-0.077,0.12-0.194,0.12-0.351l-0.3-0.293c-0.061,0.08-0.091,0.16-0.091,0.24c-0.079-0.14-0.229-0.31-0.448-0.509
				c0.12-0.139,0.18-0.299,0.18-0.479c0-0.279-0.149-0.657-0.449-1.137c-0.479-0.797-0.728-1.216-0.748-1.257
				c0.102,0,0.189,0.03,0.271,0.09c0.039-0.117,0.219-0.325,0.538-0.621l-0.18-0.179c-0.04,0.039-0.11,0.078-0.21,0.116
				c-0.1,0.039-0.149,0.077-0.149,0.115c0.039-0.079,0.02-0.193-0.061-0.343c-0.079-0.149-0.119-0.274-0.119-0.375
				c0-0.08,0.063-0.239,0.192-0.479c0.129-0.238,0.194-0.429,0.194-0.568l0.266,0.239c0.101-0.119,0.148-0.238,0.148-0.359
				c0-0.099-0.14-0.309-0.422-0.629V22.25c0.14-0.119,0.269-0.364,0.389-0.733s0.188-0.559,0.208-0.568
				c0.021-0.01,0.039-0.055,0.06-0.135c0.021-0.079,0.09-0.119,0.21-0.119c0.02,0,0.078-0.145,0.18-0.434
				c0.098-0.289,0.147-0.494,0.147-0.614l0.239,0.239c0.159-0.341,0.447-0.762,0.865-1.264c0.597-0.722,1.094-1.083,1.491-1.083
				c1.711,0,2.884,0.663,3.522,1.987c-0.042-0.06-0.102-0.06-0.181,0c-0.1,0.081-0.15,0.17-0.15,0.27
				c0.062,0.061,0.12,0.069,0.18,0.03c0.06-0.061,0.09-0.12,0.09-0.18c0.18,0.16,0.33,0.389,0.449,0.688
				c-0.3,0-0.449-0.04-0.449-0.12l-0.149,0.21c0.122,0,0.294,0.22,0.518,0.657c0.041,0.061,0.142,0.09,0.305,0.09V24.193z
				 M105.54,22.638l-0.179-0.061l-0.15,0.299l0.18,0.061L105.54,22.638z M105.75,27.365v-0.33h-0.18v0.33H105.75z M106.827,27.665
				l-0.179-0.061l-0.151,0.299l0.18,0.061L106.827,27.665z M110.744,23.685c0-0.08-0.039-0.294-0.115-0.644
				c-0.079-0.349-0.119-0.604-0.119-0.764c-0.04-1.396-0.119-2.373-0.239-2.932c-0.021-0.119-0.12-0.254-0.301-0.403
				c-0.18-0.149-0.321-0.225-0.419-0.225c-0.702,0.559-1.212,1.107-1.533,1.646c-0.04-0.039-0.1-0.08-0.18-0.119
				c-0.08-0.04-0.141-0.08-0.18-0.12c0.02,0.559-0.13,1.177-0.451,1.855c0,0.021-0.131,0.029-0.391,0.029
				c0,0.359-0.05,0.759-0.149,1.197c0,0.1,0.064,0.279,0.192,0.538c0.131,0.26,0.193,0.449,0.193,0.568
				c1.589,0,2.778-0.079,3.573-0.239c0-0.02,0.02-0.06,0.059-0.119C110.725,23.894,110.744,23.804,110.744,23.685z M107.036,27.245
				l-0.313-0.149l-0.057,0.18l0.284,0.148L107.036,27.245z M107.036,29.25h-0.148l-0.15,0.389l0.179,0.09L107.036,29.25z"/>
			<path class="st1" d="M125,24.193c-0.18,0-0.31-0.029-0.389-0.089l-0.091,0.398c-0.04,0.171-0.11,0.255-0.21,0.255
				s-0.185-0.014-0.255-0.042c-0.07-0.029-0.155-0.044-0.255-0.044s-0.18,0.038-0.239,0.114c-0.061,0.075-0.14,0.113-0.241,0.113
				c-0.098,0-0.119-0.038-0.06-0.113c0.06-0.076,0.04-0.114-0.06-0.114c-0.101,0-0.21,0.063-0.33,0.185
				c-0.119,0.123-0.22,0.183-0.3,0.183c-0.101,0-0.19-0.047-0.27-0.14c-0.08-0.095-0.17-0.142-0.271-0.142
				c-0.1,0-0.21,0.063-0.33,0.188s-0.229,0.188-0.329,0.188c-0.08,0-0.2-0.039-0.359-0.118c-0.16-0.077-0.29-0.116-0.39-0.116
				s-0.181,0.039-0.24,0.116c-0.06,0.079-0.141,0.118-0.24,0.118c-0.08,0-0.095-0.039-0.045-0.118
				c0.049-0.077,0.025-0.116-0.075-0.116c-0.099,0-0.298,0.1-0.6,0.3c-0.378,0.281-0.629,0.441-0.749,0.481
				c0.1,0.481,0.238,0.712,0.415,0.691c0,0.06,0.025,0.215,0.074,0.465c0.05,0.251,0.074,0.447,0.074,0.587
				c0.674,0.903,1.346,1.824,2.021,2.766c0.019,0.161,0.068,0.24,0.149,0.24c0.097,0,0.319-0.04,0.668-0.122
				c0.346-0.081,0.573-0.122,0.683-0.122c0.108,0,0.152-0.041,0.133-0.123v-0.244c0.093,0.122,0.212,0.133,0.359,0.03
				c-0.019,0.204,0.019,0.398,0.111,0.581c0.055,0,0.138-0.061,0.248-0.182c-0.041-0.021-0.093-0.026-0.156-0.015
				c-0.063,0.01-0.093-0.047-0.093-0.169c0-0.1,0.103-0.252,0.31-0.456c-0.012,0.777-0.012,1.167,0,1.167
				c0.262-0.18,0.393-0.379,0.393-0.599c0-0.078-0.071-0.348-0.214-0.808c0.099,0,0.327,0.158,0.683,0.474v0.415
				c-0.418,0.138-0.697,0.414-0.835,0.828c-0.121,0-0.25-0.073-0.39-0.221c-0.08,0.075-0.229,0.227-0.448,0.456h-0.418
				c0.04-0.192,0.01-0.384-0.089-0.576c-0.121,0.153-0.35,0.346-0.688,0.576l-0.238-0.235c0.039,0.095-0.031,0.142-0.21,0.142
				c-0.1,0-0.14-0.04-0.119-0.117c0.02-0.079-0.021-0.117-0.12-0.117c-0.119,0-0.169,0.029-0.148,0.087l0.06,0.147
				c-0.02,0-0.06-0.062-0.12-0.182s-0.149-0.181-0.269-0.181c-0.1,0-0.14,0.021-0.121,0.063c0.021,0.043-0.019,0.064-0.118,0.064
				c-0.061,0-0.25-0.281-0.568-0.844l-0.239,0.268c-0.121-0.32-0.24-0.479-0.36-0.479c-0.14,0-0.209,0.07-0.209,0.212
				c-0.039-0.156-0.219-0.361-0.538-0.615c0.079-0.077,0.119-0.194,0.119-0.351l-0.298-0.293c-0.061,0.08-0.091,0.16-0.091,0.24
				c-0.08-0.14-0.229-0.31-0.448-0.509c0.119-0.139,0.179-0.299,0.179-0.479c0-0.279-0.149-0.657-0.448-1.137
				c-0.479-0.797-0.729-1.216-0.748-1.257c0.1,0,0.189,0.03,0.27,0.09c0.039-0.117,0.219-0.325,0.538-0.621l-0.179-0.179
				c-0.041,0.039-0.11,0.078-0.21,0.116c-0.1,0.039-0.15,0.077-0.15,0.115c0.04-0.079,0.02-0.193-0.06-0.343
				c-0.08-0.149-0.12-0.274-0.12-0.375c0-0.08,0.064-0.239,0.194-0.479c0.129-0.238,0.193-0.429,0.193-0.568l0.266,0.239
				c0.099-0.119,0.149-0.238,0.149-0.359c0-0.099-0.141-0.309-0.423-0.629V22.25c0.14-0.119,0.268-0.364,0.388-0.733
				c0.119-0.369,0.188-0.559,0.209-0.568s0.039-0.055,0.06-0.135c0.021-0.079,0.09-0.119,0.209-0.119
				c0.02,0,0.079-0.145,0.179-0.434s0.149-0.494,0.149-0.614l0.238,0.239c0.159-0.341,0.448-0.762,0.867-1.264
				c0.596-0.722,1.093-1.083,1.491-1.083c1.709,0,2.883,0.663,3.521,1.987c-0.041-0.06-0.101-0.06-0.181,0
				c-0.1,0.081-0.149,0.17-0.149,0.27c0.06,0.061,0.119,0.069,0.18,0.03c0.061-0.061,0.09-0.12,0.09-0.18
				c0.18,0.16,0.329,0.389,0.448,0.688c-0.3,0-0.448-0.04-0.448-0.12l-0.149,0.21c0.122,0,0.294,0.22,0.517,0.657
				c0.041,0.061,0.144,0.09,0.305,0.09V24.193z M117.687,22.638l-0.18-0.061l-0.149,0.299l0.179,0.061L117.687,22.638z
				 M117.896,27.365v-0.33h-0.181v0.33H117.896z M118.973,27.665l-0.179-0.061l-0.149,0.299l0.178,0.061L118.973,27.665z
				 M122.891,23.685c0-0.08-0.039-0.294-0.117-0.644c-0.078-0.349-0.117-0.604-0.117-0.764c-0.039-1.396-0.12-2.373-0.239-2.932
				c-0.021-0.119-0.121-0.254-0.301-0.403c-0.181-0.149-0.321-0.225-0.421-0.225c-0.699,0.559-1.211,1.107-1.531,1.646
				c-0.04-0.039-0.101-0.08-0.18-0.119c-0.081-0.04-0.142-0.08-0.181-0.12c0.02,0.559-0.131,1.177-0.45,1.855
				c0,0.021-0.131,0.029-0.391,0.029c0,0.359-0.05,0.759-0.15,1.197c0,0.1,0.064,0.279,0.193,0.538
				c0.129,0.26,0.193,0.449,0.193,0.568c1.588,0,2.778-0.079,3.572-0.239c0-0.02,0.02-0.06,0.06-0.119
				C122.87,23.894,122.891,23.804,122.891,23.685z M119.184,27.245l-0.314-0.149l-0.057,0.18l0.284,0.148L119.184,27.245z
				 M119.184,29.25h-0.15l-0.15,0.389l0.18,0.09L119.184,29.25z"/>
		</g>
		<g>
			<g>
				<path class="st1" d="M119.743,4.908c0,0-1.872,0.27-2.84,1.829c-0.303,0.487-1.075,2.689,0.937,3.852l0.251,0.679l0.101-0.609
					c0,0,1.258,0.145,3.387-2.847c0,0,0.405,0.164,0.428,0.54l-0.139,0.195l0.147-0.104l0.006,0.135c0,0-0.097,0.094-0.087,0.185
					l0.076,0.01c0,0,0.039,0.213,0.084,0.229c0.045,0.016,0.091-0.088,0.091-0.16c0,0,0.047-0.05,0.092,0.044
					c0,0,0.021-0.129-0.051-0.157l-0.004-0.1c0,0,0.11,0.009,0.136,0.091c0,0-0.016-0.169-0.126-0.195c0,0,0.1-0.941-0.5-0.947
					c0,0,0.076-0.159,0.119-0.199c0,0,0.293-0.05,0.721,0.182c0,0,0.081,0.506,0.071,0.701l-0.122,0.21l0.142-0.091l0.006,0.16
					l-0.084,0.16l0.118-0.053l0.007,0.224c0,0,0.147-0.066,0.17-0.151c0,0,0.01-0.041,0.044,0c0,0,0.063-0.009-0.037-0.101
					l-0.011-0.207l0.167,0.125l-0.151-0.249c0,0-0.034-0.619-0.122-0.785c-0.087-0.167-0.421-0.387-0.736-0.368
					c0,0-0.028-0.128,0.25-0.508c0,0,1.219,0.578,1.762-0.198c0.544-0.776-0.025-1.431-0.278-1.601c0,0,0.009-0.797,0.606-1.051
					c0.204-0.086,0.335,0.099,0.397-0.113c0.06-0.212-0.198-0.17-0.293-0.156c-0.094,0.015-0.425,0.132-0.604,0.373
					c-0.178,0.241-0.273,0.604-0.282,0.83c0,0-0.523-0.193-0.802-0.118c0,0-0.25-0.787,0.142-1.145
					c0.391-0.358,0.55-0.296,0.462-0.523c-0.057-0.146-0.368,0.108-0.429,0.146c-0.062,0.038-0.811,0.646-0.358,1.556
					c0,0-0.387,0.066-0.58,0.631l-0.171-0.229l0.044,0.189l-0.258-0.239l0.02,0.145l-0.214-0.226l0.025,0.113
					c0,0-0.107-0.047-0.151-0.053l-0.17-0.142l0.02,0.116c0,0-0.33-0.069-0.431-0.069l-0.213-0.173l0.1,0.18
					c0,0-0.15-0.028-0.173-0.035c-0.021-0.006-0.248-0.141-0.248-0.141l0.147,0.166c0,0-0.165-0.016-0.245-0.009l-0.128-0.075
					l0.053,0.082c0,0-0.112,0.003-0.147,0.003l-0.205-0.053L119.743,4.908z"/>
			</g>
			<g>
				<path class="st1" d="M120.604,4.468c0,0-1.382-2.652-2.654-3.265c-0.411-0.198-1.149-0.678-1.885,0.349
					C115.329,2.58,119.121,4.066,120.604,4.468z"/>
			</g>
			<g>
				<path class="st1" d="M121.559,4.644c0,0-0.179-2.799-1.14-4.213c-0.233-0.344-0.896-0.707-1.479-0.123
					c-0.406,0.406,0.301,1.527,0.471,1.762C119.58,2.307,121.041,4.333,121.559,4.644z"/>
			</g>
			<g>
				<path class="st1" d="M122.266,7.057c0,0,0.821-0.038,0.849,0.452l-0.123,0.151l0.101-0.05c0,0-0.016,0.12-0.112,0.22
					l0.094-0.016l-0.052,0.217l0.108-0.072l0.066,0.11c0,0,0.029-0.166,0.029-0.182c0-0.016,0.049-0.016,0.07,0.031l-0.005-0.132
					h0.09c0,0-0.047-0.082-0.085-0.167c-0.037-0.084,0.082-0.807-0.95-0.656C122.346,6.962,122.229,6.972,122.266,7.057z"/>
			</g>
		</g>
	</g>
</g>
</svg>
